/* XPM */
static char *bitcoin641693750846[] = {
/* columns rows colors chars-per-pixel */
"64 64 82 1 ",
"  c None",
". c #0E0D0D",
"X c #001719",
"o c #0B1718",
"O c #01181A",
"+ c #0B1919",
"@ c #151414",
"# c #181717",
"$ c #161A17",
"% c #1A1917",
"& c #151718",
"* c #141919",
"= c #1B1919",
"- c #221A17",
"; c #2C1A17",
": c #241A19",
"> c #2C1D1B",
", c #321A17",
"< c #3C1A17",
"1 c #351E1C",
"2 c #3C1B19",
"3 c #222121",
"4 c #3A3939",
"5 c #441A16",
"6 c #401B19",
"7 c #4C1C19",
"8 c #571B17",
"9 c #5B1B17",
"0 c #551C18",
"q c #5B1C18",
"w c #651A16",
"e c #6C1C17",
"r c #661C18",
"t c #691C18",
"y c #751C17",
"u c #7C1C16",
"i c #731C19",
"p c #791D18",
"a c #6C201B",
"s c #72231E",
"d c #7D221D",
"f c #851C17",
"g c #8A1C15",
"h c #801D18",
"j c #931C16",
"k c #9B1D17",
"l c #901E18",
"z c #9A1E19",
"x c #A31C16",
"c c #A91C15",
"v c #A71E18",
"b c #AB1F19",
"n c #B61D16",
"m c #BA1D16",
"M c #B51F18",
"N c #B81F18",
"B c #92211B",
"V c #9A201A",
"C c #A6201A",
"Z c #AD201A",
"A c #B2211A",
"S c #BD2019",
"D c #C21E16",
"F c #CE1D16",
"G c #D41E17",
"H c #DC1E16",
"J c #D51F18",
"K c #E41E15",
"L c #EE1D16",
"P c #F41D16",
"I c #FE1D15",
"U c #CD2017",
"Y c #CB231A",
"T c #D52117",
"R c #DB2016",
"E c #DF2019",
"W c #EA2016",
"Q c #E32119",
"! c #F32017",
"~ c #FF2016",
"^ c #F02018",
"/ c #FE2118",
/* pixels */
"                          ============                          ",
"                      3#=========&==*===&3                      ",
"                    ##=========#=========@==                    ",
"                 *==#=##====**++++**==========*                 ",
"                =&=====#+OXOO+*==&+OOOO+========                ",
"              ##=====*OO*6iznGHLLHFmzi2*OO&=====##              ",
"             =##===*O+7zR/IIIIIIIIIIIIIHj7+O+=====#             ",
"           =##==:*OOtFIIIPLLLLLLLLLLLLPIIIFt+O&===##=           ",
"          ======OOqHIIPLLLLLLLLLLLLLLLLLLPIIH0OO======          ",
"         ##====O:NIILLLLLLLLLLLPLLLLLLLLLLLLIIm:O====#=         ",
"        =====*OqLILLLLLLLLLLLLLLLLLLLLLLLLLLLLIPqO*=====        ",
"       @#===*Of/ILLLLLLLLLLLLLLLLLLLLLLLLLLLLLLIIhO*===#*       ",
"       .==-+OzIPIIIIIIIIIIIIIIIIIIIIPLLLLLLLLLLLPIzO*=#=.       ",
"      ====*OzIPPMvvvvvvvvvvvvCvvvvMTIIILLLLLLPPLLPIzO&==#=      ",
"     *===#OfIPPI:OXXOOOOOOOOOOOOOOO+2l/ILLLLLLLLLLLIfX*==##     ",
"     .===OqIPLPI2O#=*==*=*=#=###*==+OO>YILLLLLLLLPLP/qO:#=.     ",
"    =#=:O:/ILLPI2O===#==#=============OOAILLLLPLLLLLPI-O==*=    ",
"   @@==*ODILLLPI2O===+XOXXOXOOXXo&=====+OFILLLLLLLLLLIDO====@   ",
"   #===OqIPLLLPI2O==&>1111111111=OOo:===O3/ILLLLPLLLLPIqO===#   ",
"   @==++KILLLLPI2O==Ob////II///I^Ds*O====OzILLLLLLLLLLIK++==#   ",
"  3#==OeILLLLLPI2O=*ObIPPPIPIPIPIIIQ7O===X2IPLLLLLLLLLLItO:=##  ",
"  .==*ORILLLLLPI2O==OcIPLLPLPLLLLLLI/7O==*+HILLLLLLLLLLIRO*=#@  ",
" 4.==O7IPLLLPLPI2O=#XcILLLLLLLLLLLLLIK+*=*OAILLLLLLLLLLPI7O=#.4 ",
" @===OzILLLLLLP/2O##XcILPLLLLLLLLLLLI/1O==OZILLLLLLPLLLLIzO=#=@ ",
" #=#++KILLLLLLPI2O##OcILLLLPLLLLLLLLIL*+=*OAILLLLLLLLLLLIK+*##= ",
" #==O6IPLLLLLPPI2O==XcILLLLLLLLLLLLIIaO=#*+TILLLLLLLLLLPPI6O#== ",
"====OyILPLLLLLPI2O==OvILLLLLLLLLLIIIdO==#O1/PLLLPLLLLLLLLIyO====",
"=#==OzILLLLLLLPI2O=*Oc~LLLLLLLLLILv6O&==#OvIIPLLLLPLLLLLLIzO====",
"===*OSILLLLLLLPI2O==OvILPLLLLLLIm*OO=====*8unPIPLLLLLLLLLINO*===",
"===*+UILLLLLLLPI2O==OcILLLLPLLLIzO*======-OOO:gIILLLLLLLLIG+*===",
"===+*RILLLLLLLPI2O##OcILLLLLLPLIbO=========-#OO1KPLLLLLLLIR*+===",
"===+#^ILLLPLPLPI2O==OvILLLLLLLLIcO&========#===O#LILLLLLLIW=+===",
"==#+=LILLLLLLLPI%OXXXzILLLLPPLLIcX====+XXXX#===-O1IPLLLLLIL=+==#",
"===+*HILPLLLLPPPBsddsFPLLLLLLLLIxX===+wlhu<XO====OfILLLLLIH*+=#=",
"===*+FILLLLLLLLLI~IIIILLLLLLLLLPK=+==O7IIIIm<O#==O%PILLLLIF+*===",
"===&OmILLLLPLLLLLLLLLLLLLLLLLLLLIlO===OjILPI~8O==#XnILLLLINO*===",
"=*==OxILLLLLLPLLLLPLLLLLLLLLLLLLIP=+==+=!ILLII;O==OpIPLLLICO#===",
"====Oy~LLLPLLLLLLLLLLPLLPLLLLLPLLIzO===OhILLLIjO=-X8PPLLL~iO====",
" ===O6IPLLLLLLLLLLLLLLLLLLLLLLLPLII:O==++WILLIbX#=O8IPLLPI6O=== ",
" ===++KILLLLLLLLPLLLLLLLLPLLLLLLLLIvO==:XtILLIiO==OtIPLLIK++=== ",
" @===OV~LLLLLLLLLLLLLLLLLLLLLLLLLLLI>X==*ORIIFX&##OjILLLIkO===@ ",
" 4.==O7IPLLLIPIIIIIIIIIIIPIIIIIIIIIISO#==O0Ic*O=#*OGILLPI7O==.4 ",
"  .=#*OHILPLLLLLLWLLLLLLLLWWLWLLKLLKI2O==&ORtX:=-O6IPLLIHO*=#@  ",
"  ====OeIPPI,+%%%#==%=%%-===#======+iUO&==O0/#+=+OFILLLItO==#=  ",
"   ##=*+WIPI-O++++++O+++++++++++++++OTrX===OHmX#OgIPLLIK++==@   ",
"   #===OqIIP>O=================#====O0TO*==O1I;Of~LLLPI8O:=##   ",
"   @&==*ODIP;O==**%&*%=*#*=**=%&*##=*OYiO-==XAHg/LLLLIYO*==@@   ",
"    =&=:O-~~$OOOOOOOOOOOOOOOOOXXXXOOOO>Y+*==O&IIPLLLI/=O==#=    ",
"     .===Or/MxvcvccvcccvccccvccccccccbzLqO=&#OpILLLPIqO===.     ",
"     @##==OfIIIIIIIIIIIIIIIIIIIIIIIIIIIITOOOOOOJILPIfO===&@     ",
"      #@==*OzIPLLLLLLLLLLLLLLLLLLLLLLLLPIMkMMNZJPPIzO*==#=      ",
"       @==:+XjIPLLLLLLLLLLLLLLLLLLPLLLLLLIIIIIIPPIjX*===@       ",
"       @====*Of~ILLLLLLLLLLLPLLLLLLLLLLLLLLLLLLI~hO*===#@       ",
"        ##==#&Oq!IPLLLLLPLLLLLLLLLLLLLLLLLLLLLI!9X&===#=        ",
"         #====#O:NIIPLLLLLLLLLLPLPLLLLLLLLLLIIN:O#===#=         ",
"          ====#=OO0HIILLLLLLLLLLLLLLLLLLLPIITqOO=#====          ",
"           3@#====O+rUIIIPLLLLLLLLLLLLPIIIFt+O*===##=           ",
"             #=====*OO7zHIIIIIIIIIIIIIIHz7OO*=====#             ",
"              ###=#=:*OO*2izNGHLLHGNzi6*OO*:====##              ",
"                =#======*XOOO+*=#*+OXOX+======#=                ",
"                 ###*=======**++++**#====#=##=&                 ",
"                    ==*=============#====&#=                    ",
"                      3=#==============##3                      ",
"                          =#==*=======                          "
};
