/* XPM */
static char *bitcoin161693750846[] = {
/* columns rows colors chars-per-pixel */
"16 16 129 2 ",
"   c None",
".  c #001315",
"X  c #001415",
"o  c #001617",
"O  c #001618",
"+  c #001718",
"@  c #001719",
"#  c #011719",
"$  c #00171A",
"%  c #00171B",
"&  c #001819",
"*  c #00181A",
"=  c #01181A",
"-  c #00181B",
";  c #00191B",
":  c #05191A",
">  c #06191A",
",  c #061B1C",
"<  c #08181A",
"1  c #08191A",
"2  c #0A181A",
"3  c #0B191A",
"4  c #0C191A",
"5  c #091B1C",
"6  c #0A1B1C",
"7  c #0A1C1D",
"8  c #111617",
"9  c #131617",
"0  c #151717",
"q  c #1A1617",
"w  c #191719",
"e  c #1A1819",
"r  c #1B1819",
"t  c #1F1919",
"y  c #2A1819",
"u  c #291A19",
"i  c #2A1A19",
"p  c #301918",
"a  c #321918",
"s  c #321A19",
"d  c #351B19",
"f  c #361A19",
"g  c #3F1A18",
"h  c #082324",
"j  c #092324",
"k  c #092325",
"l  c #441413",
"z  c #451413",
"x  c #4B1412",
"c  c #4A1513",
"v  c #461917",
"b  c #471917",
"n  c #481917",
"m  c #491917",
"M  c #401A1A",
"N  c #441A19",
"B  c #461A19",
"V  c #481A18",
"C  c #4F1A18",
"Z  c #4F1A19",
"A  c #501A18",
"S  c #511A18",
"D  c #521A18",
"F  c #541C18",
"G  c #581918",
"H  c #791B18",
"J  c #861B17",
"K  c #941B17",
"L  c #941C17",
"P  c #961C17",
"I  c #981B17",
"U  c #9A1C18",
"Y  c #9B1C18",
"T  c #9B1E19",
"R  c #9C1C18",
"E  c #A21C17",
"W  c #A41D16",
"Q  c #A41D17",
"!  c #A71C17",
"~  c #A91D17",
"^  c #AC1C16",
"/  c #AC1D16",
"(  c #AC1C17",
")  c #B11C17",
"_  c #B41D16",
"`  c #B41D17",
"'  c #B61C16",
"]  c #B71C16",
"[  c #B71D17",
"{  c #B81D17",
"}  c #BC1C17",
"|  c #BE1D16",
" . c #C01D16",
".. c #C21D17",
"X. c #C41D17",
"o. c #CB1D16",
"O. c #C91E16",
"+. c #CF1D15",
"@. c #CD1D16",
"#. c #CE1D16",
"$. c #CE1D17",
"%. c #D11D16",
"&. c #D01E16",
"*. c #D51D16",
"=. c #D91D16",
"-. c #DE1D16",
";. c #E01E16",
":. c #E11E16",
">. c #ED1D16",
",. c #EE1E16",
"<. c #EF1E16",
"1. c #F01E15",
"2. c #F21E15",
"3. c #F11F16",
"4. c #F61D16",
"5. c #F61E16",
"6. c #F91F14",
"7. c #F91D16",
"8. c #FA1D16",
"9. c #FE1D15",
"0. c #FF1D15",
"q. c #FC1E15",
"w. c #FF1E14",
"e. c #FF1E15",
"r. c #FF1F15",
"t. c #FF1D16",
"y. c #FF1E16",
"u. c #FF1F16",
"i. c #FF2015",
/* pixels */
"          ; * + * * *           ",
"      > + V P { [ P N + >       ",
"    + e *.i.e.e.e.e.e.[ w +     ",
"  5 q ;.~ G N N D ` e.e.;.0 5   ",
"  . +.i.* 1 d d 5 ; E e.e. .o   ",
"j l e.5.1 E i.e.e.Z 4 e.7.e.l j ",
"o Y e.<.2 I e.7.<.M i e.e.e.R o ",
"* { e.<.% J e.e.s + + D 2.e.[ * ",
"; { e.>.Y $.5.e.w i E + V e.} ; ",
"+ I e.t.i.e.e.e...; e.( + e.~ + ",
"j x i.) Q ( ( ( +.t Z D s i.c j ",
"  . } g % + * + + D ; s 7.+..   ",
"  , 0 %.2.=.+.&.+.-.H X.2.8 7   ",
"    + i O.e.e.e.e.e.e.O.e +     ",
"      , + N K [ [ K V + >       ",
"          ; + * * * ;           "
};
