/* XPM */
static char *result[] = {
/* columns rows colors chars-per-pixel */
"64 64 217 2 ",
"   c #460000",
".  c #4B0000",
"X  c #540000",
"o  c #5C0000",
"O  c #650000",
"+  c #6C0000",
"@  c #6B000D",
"#  c #680A0D",
"$  c #720004",
"%  c #75010A",
"&  c #79000D",
"*  c #73090D",
"=  c #7A040B",
"-  c #6E0113",
";  c #650011",
":  c #720216",
">  c #7C0213",
",  c #720D11",
"<  c #7A0C14",
"1  c #740419",
"2  c #7A051B",
"3  c #7F091C",
"4  c #6F1519",
"5  c #7C131A",
"6  c #7F1A1F",
"7  c #761518",
"8  c #7E1B21",
"9  c #6B1B23",
"0  c #7F292E",
"q  c #7B2226",
"w  c #83000B",
"e  c #810217",
"r  c #83041C",
"t  c #830A1D",
"y  c #81161D",
"u  c #860721",
"i  c #850B20",
"p  c #890C24",
"a  c #8E0E2A",
"s  c #880623",
"d  c #841622",
"f  c #8D1126",
"g  c #831B24",
"h  c #8B1029",
"j  c #8A1D2A",
"k  c #8A1F27",
"l  c #9B162D",
"z  c #961125",
"x  c #A91B34",
"c  c #B41D37",
"v  c #A6162F",
"b  c #822325",
"n  c #84242B",
"m  c #8A262E",
"M  c #832C2E",
"N  c #842B32",
"B  c #892D33",
"V  c #8C2B36",
"C  c #962538",
"Z  c #962D3C",
"A  c #932938",
"S  c #893136",
"D  c #8C3339",
"F  c #8E393D",
"G  c #86363C",
"H  c #92313A",
"J  c #923C3D",
"K  c #963039",
"L  c #B3203B",
"P  c #BC233E",
"I  c #C0253F",
"U  c #8F3C43",
"Y  c #943B42",
"T  c #993D44",
"R  c #9F3B4A",
"E  c #BE2540",
"W  c #A23E47",
"Q  c #CB2A46",
"!  c #CF2D4B",
"~  c #C62742",
"^  c #D32D4A",
"/  c #CF304D",
"(  c #DB314E",
")  c #D4314D",
"_  c #D12E50",
"`  c #DF3451",
"'  c #EC3756",
"]  c #EE3857",
"[  c #EF3B59",
"{  c #E13757",
"}  c #F43C5B",
"|  c #FB3E5E",
" . c #F23857",
".. c #FD3F60",
"X. c #F63F60",
"o. c #944247",
"O. c #95434A",
"+. c #9D444C",
"@. c #944A4E",
"#. c #9B4449",
"$. c #9D4C53",
"%. c #984951",
"&. c #9F5156",
"*. c #8B4B4F",
"=. c #A1464E",
"-. c #A14651",
";. c #A24A53",
":. c #A84A55",
">. c #A84A55",
",. c #A45359",
"<. c #AB535C",
"1. c #A6565B",
"2. c #AC5560",
"3. c #AC5C63",
"4. c #A85D65",
"5. c #B55C68",
"6. c #A86267",
"7. c #AF646B",
"8. c #A66165",
"9. c #B2626C",
"0. c #BA636F",
"q. c #B56C73",
"w. c #B96B73",
"e. c #B86A75",
"r. c #B27075",
"t. c #BB737B",
"y. c #B6757B",
"u. c #FB405F",
"i. c #FF4263",
"p. c #FF4769",
"a. c #FF4B6E",
"s. c #FF4D71",
"d. c #FF5176",
"f. c #C26A76",
"g. c #C56C78",
"h. c #C5707D",
"j. c #BD7B84",
"k. c #BF7582",
"l. c #C47A85",
"z. c #C97B86",
"x. c #C27E89",
"c. c #C57784",
"v. c #D07D89",
"b. c #C38087",
"n. c #C3848D",
"m. c #CA848D",
"M. c #C8888F",
"N. c #D2828F",
"B. c #CD8C95",
"V. c #C58D95",
"C. c #D18B95",
"Z. c #D58D98",
"A. c #CD929B",
"S. c #C59196",
"D. c #D3939C",
"F. c #D8949F",
"G. c #CC99A1",
"H. c #D69CA6",
"J. c #DB9BA5",
"K. c #DD9DA9",
"L. c #D898A3",
"P. c #E399A4",
"I. c #D2A5A9",
"U. c #DBA3AB",
"Y. c #D7A5A8",
"T. c #DDABB3",
"R. c #DBABB4",
"E. c #DAB2B8",
"W. c #E2A4AD",
"Q. c #E2A8AF",
"!. c #ECA4B1",
"~. c #E2ABB4",
"^. c #EDAEB9",
"/. c #E5A8B2",
"(. c #F3AAB6",
"). c #F4ADB9",
"_. c #F9AEBA",
"`. c #F7A8B4",
"'. c #E4B3BD",
"]. c #EAB2BC",
"[. c #F6B2BE",
"{. c #F9B2BD",
"}. c #EAB6C1",
"|. c #E5BAC1",
" X c #ECBCC4",
".X c #EBBFCA",
"XX c #E6B6C2",
"oX c #F5B4C1",
"OX c #F9B6C3",
"+X c #F4BAC6",
"@X c #FBB9C5",
"#X c #F2BCC9",
"$X c #FDBDC9",
"%X c #ECC3CC",
"&X c #EBC0C7",
"*X c #F2C2CB",
"=X c #FEC1CE",
"-X c #FFC5D2",
";X c #F3CAD5",
":X c #FECAD6",
">X c #F7CFD9",
",X c #FECDDA",
"<X c #F7C6D3",
"1X c #F5D3DC",
"2X c #FFD1DD",
"3X c #EFCAD3",
"4X c #FFD5E2",
"5X c #FED9E5",
"6X c #FFDDEA",
"7X c #F4D8E4",
"8X c #FFE1EE",
"9X c #FFE4F2",
"0X c #FFEAF6",
"qX c #FFECF9",
"wX c #FFF2FC",
"eX c #FFFCFF",
"rX c None",
/* pixels */
"rXrXrXrXrXrXrXrXrXrXrXrXrXrXrXrXrXrXrXrXrXrXrXrXrXrXrXrXrXrXrXrXrXrXrXrXrXrXrXrXrXrXrXrXrXrXrXrXrXrXrXrXrXrXrXrXrXrXrXrXrXrXrXrX",
"rXrXrXrXrXrXrXrXrXrXrXrXrXrXrXrXrXrXrXrXrXrXrXrXrXrXrXrXrXrXrXrXrXrXrXOX@XOXrXrXrXrXrXrXrXrXrXrXrXrXrXrXrXrXrXrXrXrXrXrXrXrXrXrX",
"rXrXrXrXrXrXrXrXrXrXrXrXrXrXrXrXrXrXrXrXrXrXrXrXrXrXrXrXrXrXrXrXrXOX2X5XOXOXrXrXrXrXrXrXrXrXrXrXrXrXrXrXrXrXrXrXrXrXrXrXrXrXrXrX",
"rXrXrXrXrXrXrXrXrXrXrXrXrXrXrXrXrXrXrXrXrXrXrXrXrXrXrXrXrXrXrX$X6X6XW.#.D.,XrXrXrXrXrXrXrXrXrXrXrXrXrXrXrXrXrXrXrXrXrXrXrXrXrXrX",
"rXrXrXrXrXrXrXrXrXrXrXrXrXrXrXrXrXrXrXrXrXrXrXrXrXrXrXrXOX:X9X:Xm.J + O /.rXrXrXrXrXrXrXrXrXrXrXrXrXrXrXrXrXrXrXrXrXrXrXrXrXrXrX",
"rXrXrXrXrXrXrXrXrXrXrXrXrXrXrXrXrXrXrXrXrXrXrXrXrXrX$X5X6X].q.g + $ % V -XrXrX@XrXrXOX@XrXrXrXrXrXrXrXrXrXrXrXrXrXrXrXrXrXrXrXrX",
"rXrXrXrXrXrXrXrXrXrXrXrXrXrXrXrXrXrXrXrXrXrXrX{.-X8X2XF.+.& O & s p > k 2X:X[.$X$XrX=X$XrXrXrXrXrXrXrXrXrXrXrXrXrXrXrXrXrXrXrXrX",
"rXrXrXrXrXrXrXrXrXrXrXrXrXrXrXrXrXrXrXrXrX@X4X8X*Xt.j + + e p i i t p + Y 9X$XoX-X@XoX#X$XrXrXrXrXrXrXrXrXrXrXrXrXrXrXrXrXrXrXrX",
"rXrXrXrXrXrXrXrXrXrXrXrXrXrXrXrXrXrXrXrX@X4XU.,.< O % u h i i i i i t s O 6.eX0.8.eX7.$.9XrXrXrXrXrXrXrXrXrXrXrXrXrXrXrXrXrXrXrX",
"rXrXrXrXrXrXrXrXrXrXrXrXrXrXrXrXrXrXrXrX6X7.O + > p i i t t i i i i u d u O R.l.X '.+.O *X:XrXrXrXrXrXrXrXrXrXrXrXrXrXrXrXrXrXrX",
"rXrXrXrXrXrXrXrXrXrXrXrXrXrXrXrXrXrXrX2X'.O > p p i i i i i i i i i i i d > 5 C & < p + 4.9XrXrXrXrXrXrXrXrXrXrXrXrXrXrXrXrXrXrX",
"rXrXrXrXrXrXrXrXrXrXrXrXrXrXrXrXrXrXOX9X$.+ p u i i i i t i i t i i i t t f e > a > t r $ |.,XrXrXrXrXrXrXrXrXrXrXrXrXrXrXrXrXrX",
"rXrXrXrXrXrXrXrXrXrXrXrXrXrXrXrXrXrX4XU.+ r i i t i i i i i i i i i i i i t i i t i i p + &.0XOXrXrXrXrXrXrXrXrXrXrXrXrXrXrXrXrX",
"rXrXrXrXrXrXrXrXrXrXrXrXrXrXrXrXrXOX8X@.+ p t i i i i i t i i i i t i i i i i i i i t i u O S.8XrXrXrXrXrXrXrXrXrXrXrXrXrXrXrXrX",
"rXrXrXrXrXrXrXrXrXrXrXrXrXrXrXrXrX5XY.+ s t i i i i t i i i i t i i i i i i i i i i i i p > * %X4XrXrXrXrXrXrXrXrXrXrXrXrXrXrXrX",
"rXrXrXrXrXrXrXrXrXrXrXrXrXrXrXrX@X6XU + f i i t i i i i i i i i i i i t i i t i t i i i t f + N 6X=XrXrXrXrXrXrXrXrXrXrXrXrXrXrX",
"rXrXrXrXrXrXrXrXrXrXrXrXrXrXrXrX5XH.+ t u u i p t r p i i i i i i i i t i i u r u i i i t i p + 4.9X{.rXrXrXrXrXrXrXrXrXrXrXrXrX",
"rXrXrXrXrXrXrXrXrXrXrXrXrXrXrX@X5XU $ p i d s % + % $ u i i i i i i i u p t $ % + > s d i t p r O D.4XrXrXrXrXrXrXrXrXrXrXrXrXrX",
"rXrXrXrXrXrXrXrXrXrXrXrXrXrXrX6XA.+ u p r $ + k b. X+.O > p i i i t f p $ O 7.#Xq.5 + & s f t p + %.5XrXrXrXrXrXrXrXrXrXrXrXrXrX",
"rXrXrXrXrXrXrXrXrXrXrXrXrXrX@X4XG % r + + H B.2X6X4X8XM.* + u i i p r O 8 U.8X2X8X;Xt.j + + r p > g $X=XrXrXrXrXrXrXrXrXrXrXrXrX",
"rXrXrXrXrXrXrXrXrXrXrXrXrXrX8XS.+ % @ ;.U.5X6X$X{.[.OX8X;X+.O & a $ + 7.5X5X{.[.{.=X8X2XD.Y + & s & W.2XrXrXrXrXrXrXrXrXrXrXrXrX",
"rXrXrXrXrXrXrXrXrXrXOXOXrX$X2XB + +.+X6X4X@X{.OXOXOXOX{.:X9XA.5 o M T.9X=X{.OXOXOXOX{.@X6X5X~.V & + m.5XrXOX@XrXrXrXrXrXrXrXrXrX",
"rXrXrXrXrXrXrXrXrX@X5X6X,XqXb.O $ I.wX{._.=X6X-X{.OXOXOX{.OX9X'.9.>X6X{.OXOXOXOX{.,X6X$X_.OXeXk.+ + <.0X5X5X2X@XrXrXrXrXrXrXrXrX",
"rXrXrXrXrXrXrX{.2X6X9.=.U.:Xm % = U.:X{.6X&X$.'.8X{.OXOXOXOX[.=X6X$X_.OXOXOXOXOX9XS.<.4X4X_.4Xm.$ % A ;XC.K r.9X:XrXrXrXrXrXrXrX",
"rXrXrXrXrXrXOX9X%XN O + % t > > t ).4X9XB.< o , ~.0XOX{.oX$X$XOXOX{.$X@XOXoX$XqXn.+ O n ~.9X6XZ.$ s t e + + O U ;X9X{.rXrXrXrXrX",
"rXrXrXrXrX-X0Xn.O + 2 1 ; % f & j ,X}.o.O % e % + n.qX$XOX^.@X@XoX$X+X(.OX-X9X7.+ & > $ O 4.,X].> r t @ - 1 2 O # D.0X=XrXrXrXrX",
"rXrXrX{.6X1X$.  c i.( ^ ! l 2 $ T 5Xz.e.6X3.* > > O 7.9X6Xv.x.5X_.4Xy.P.6X4X#.O e < , j.2X4.P.-Xd > 3 x Q ^ ` i.z   <.5X2X{.rXrX",
"rXrX@X-XD.y . l p.| i.i.s.E - $ <.5X-XqXA.S 0Xq.$ & X #.8X2XV }.8XA.U wX3Xn X & $ I.;Xn XX9X-X:XH % 2 { a.i...i.i.3 o q K.:X@XrX",
"rXrXrX5X@.X u [ | ] ] ] i.E : + 0.5X@X,Xq , eX1X+ Z W . 4 qX8.O.eX8 S.*Xo X >.g 5 eX1XX @.5XOX5X=.+ 1 ( ..] ] ' p.) 1 o r.6XrXrX",
"rXrXrX2XT.o _ s.] ] ] ] i.P : + I.6X_.,XU.X 8 6X;X.X0X~.m b +.# %.# 1.* +. X0X].8X%XO , #X=X_.wXc.+ 2 ) i.]  .]  .d.v 4 :XrXrXrX",
"rXrXrXrX6X$.w { p.} ]  .i.E - & ,.6X2X`.9Xn.. g 7X8X!.U.9.$ 5 :.>.-.% * k.~.).qX X+ X ~.6X`.6X3XK & : ^ i.] ] i.i.^ $ y.8XrXrXrX",
"rXrXrXrX2XT.o @ c } } ] i.~ : p + M ;X6XOX9X,.  S x.T #.0.W.-X5X6X4X=XL.5.Y -.l.4 . l.8X{.9XT.7 $ p : ) i.] X.[ l o 7 ,XrXrXrXrX",
"rXrXrXrXrX6X%.+ ; t } } i.~ - i p + * Y.8X5X8XL.t.Y L.6XqXeX,X_.OX{.5XeXqX4Xn.O.l.R.wX4X9Xb.+ % a i : ! i.| { : : + t.8XrXrXrXrX",
"rXrXrXrXrX5XU.$ > p } } i.Q - i u p & O b.*Xw.S U A.-X,Xm.#.W.-XOX=XC.#.J.,X-Xj.0 Y z.#X4.O > p t i : ! i.i.( : > 5 <XrXrXrXrXrX",
"rXrXrXrXrXrX6X=.o x i.] i.Q : t i i p 3 % + . +.;X5X-XK.S . *.6X$X:X9 o %.^.-X8XXXn . $ % u p t t i : ! .. .} a O t.9XrXrXrXrXrX",
"rXrXrXrXrXrX8Xh.X L a.i.s./ : t t i u p + 7 L.qX$XoXOX(.,X#XB.-X@X@XB.,X$X).OX_.,XqXb.+ $ p i i i t - ! s.i.p.z o L.4XrXrXrXrXrX",
"rXrXrXrXrXrX5Xg.X Q } Q L f t i i i p % Y 5X6X{.oX$X:X5X2X=XoX!.OX!.+X-X5X6X-X@X[.OX8X%Xb & p i i i 3 f L Q } x O D.4XrXrXrXrXrX",
"rXrXrXrXrXrX5Xf.+ f 1 - - r t r i i > = ;X9X:X6X6X$XL.e.5.y.F.).@X(.Z.e.5.e.P.:X6X6X-XwXR.$ t t i i p 2 @ - 3 a + D.2XrXrXrXrXrX",
"rXrXrXrXrXrX5Xc.o O > p p t t t t i + 9.eXoXD.<.D N T 5.D.@X:X=XOX$X-X#XC.3.Y N H 5.J.=XqXJ % i i u t d r p $ O + K.2XrXrXrXrXrX",
"rXrXrXrXrXrX@X*XD.-.< % f e K C > u e R D O O 8 2.K.,X6X:X@X{.OXOXOXoX@X,X6X:XL.$.7 O + T Z > p t f > e i + g 3.Q.-XrXrXrXrXrXrX",
"rXrXrXrXrXrXrXrXrX8X>XF $ > 5.A e p t + 7 9.^.5X8X:X@X{.OXOXOXOXOXOXOXOXOXoX@X:X9X4XP.2.$ $ i u t 2 0.N 5.n.:X8XrXrXrXrXrXrXrXrX",
"rXrXrXrXrXrXrXrXrXrX8X'.+ t B.d r & m &X2X8X:XOX{.OXOXOXOXOXOXOXOXOX@XOXOXOXOXOXoX@X,X9X5XW.< e u + H.A.n.eXrXrXrXrXrXrXrXrXrXrX",
"rXrXrXrXrXrXrXrXrXrXrX9Xo.0 Y.% u r $ E.6X_.OXOXOXOXOX+XOX@XOX+XOXOX+XOXOXOX+XOXOXOXOX_.0XV.+ u i + 5.qXoXOXrXrXrXrXrXrXrXrXrXrX",
"rXrXrXrXrXrXrXrXrXrXrXrXH.V.L.+ u h $ V 5X$XOXOXOXOXOXOXOXOXOXOXOXOXOXOXOXOXOX@XOXOXoX:X%X* > i i $ <.6X$XoXrXrXrXrXrXrXrXrXrXrX",
"rXrXrXrXrXrXrXrXrXrXrXrX=X9Xg.+ i u u O j.8X{.OXOXOX@XOXOX+XOXOXOXOX@X+XOXOXOXOXOX@X{.9X,.+ p u i + :.5XOXOXrXrXrXrXrXrXrXrXrXrX",
"rXrXrXrXrXrXrXrXrXrXrXrXrX6X5.+ i t i > 5 >X=XOXOXOXOXOXOXOXOX@X@XOXOXOXOXOXOXOXOXoX2XE.+ r t t f $ #.4XrXrXrXrXrXrXrXrXrXrXrXrX",
"rXrXrXrXrXrXrXrXrXrXrXrXrX6X2.$ f t r a + 6.wXOXoXOXOXOXOXOXOXOX+XOXOXOXOXOXOXOXoX$XqXY + p p e u % D :XrXrXrXrXrXrXrXrXrXrXrXrX",
"rXrXrXrXrXrXrXrXrXrXrXrXrX2X#.$ > >.j r r + A.0X@XoXOX@XOXOXOXOXOXOXOXOXOXOXOXoX$XqXr.+ p > C 3.> + q.5XrXrXrXrXrXrXrXrXrXrXrXrX",
"rXrXrXrXrXrXrXrXrXrXrXrXrX4XY + % n.-.% p > O j.0X=X{.OXOXOXOX@XOXOXOXOXOX{.{.:X9X1.O t t e t &Xq * >XrXrXrXrXrXrXrXrXrXrXrXrXrX",
"rXrXrXrXrXrXrXrXrXrXrXrXrX,XY.+ + U.t.+ p p e O 4.9X:X{.OXOXOXOXOXOXOXOXOX{.5X1XJ O t p i t $ &Xb.9.6XrXrXrXrXrXrXrXrXrXrXrXrXrX",
"rXrXrXrXrXrXrXrXrXrXrXrXrXrX9Xr.X XXJ.+ i i p t O J 7X4X{.OXOX{.OXOX{.OX@X8X%Xq + s i i i t $ Z.6X-XrXrXrXrXrXrXrXrXrXrXrXrXrXrX",
"rXrXrXrXrXrXrXrXrXrXrXrXrXrXrX5Xq D.>X& e p 3 > p + b  X8X6X5X2X2X2X5X6X8XU.* $ p i > i i u $ b.6X@XrXrXrXrXrXrXrXrXrXrXrXrXrXrX",
"rXrXrXrXrXrXrXrXrXrXrXrXrXrXrX2XU.J.6XG O r C b $ a $ 7 =.5.c.J.Q.D.h.<.T * & p i t =.i r s O b.5XrXrXrXrXrXrXrXrXrXrXrXrXrXrXrX",
"rXrXrXrXrXrXrXrXrXrXrXrXrXrXrXrX-X=X-X'.B o k %XM + f e $ + + % & $ + $ $ r p u e j Y.y u + F ,XrXrXrXrXrXrXrXrXrXrXrXrXrXrXrXrX",
"rXrXrXrXrXrXrXrXrXrXrXrXrXrXrXrXrX@XrXrX6Xt.o I.wXn O p i f i t r t i i p t t p $ ;.>Xt + q 7XrXrXrXrXrXrXrXrXrXrXrXrXrXrXrXrXrX",
"rXrXrXrXrXrXrXrXrXrXrXrXrXrXrXrXrXOXOXrXrX9XY.N.6X6XJ + s t t i u i i p > < f p o w.wXg O %X4XrXrXrXrXrXrXrXrXrXrXrXrXrXrXrXrXrX",
"rXrXrXrXrXrXrXrXrXrXrXrXrXrXrXrXrXrXrXrXrXrXrX:X`.:X0X+.$ h r r p t h & 6 0.= O n }.6XU V.6XrXrXrXrXrXrXrXrXrXrXrXrXrXrXrXrXrXrX",
"rXrXrXrXrXrXrXrXrXrXrXrXrXrXrXrXrXrXrXrXrXrXrXrX@XrX8XY.$ > > < > h & + |.8.o y.4X:X{.+X:XrXrXrXrXrXrXrXrXrXrXrXrXrXrXrXrXrXrXrX",
"rXrXrXrXrXrXrXrXrXrXrXrXrXrXrXrXrXrXrXrXrXrXrXrXrXrX:X^.% o A. X% O $ |.%XY  X9XrXrXOX=XrXrXrXrXrXrXrXrXrXrXrXrXrXrXrXrXrXrXrXrX",
"rXrXrXrXrXrXrXrXrXrXrXrXrXrXrXrXrXrXrXrXrXrXrXrXrXrXrXoX+ y.9X9XA.* T.9X!.,XrXrXrXrX@XrXrXrXrXrXrXrXrXrXrXrXrXrXrXrXrXrXrXrXrXrX",
"rXrXrXrXrXrXrXrXrXrXrXrXrXrXrXrXrXrXrXrXrXrXrXrXrXrXrX(.D.6XrXrX:X:X,X_.rXrXrXrXrXrXrXrXrXrXrXrXrXrXrXrXrXrXrXrXrXrXrXrXrXrXrXrX",
"rXrXrXrXrXrXrXrXrXrXrXrXrXrXrXrXrXrXrXrXrXrXrXrXrXrXrX@X,XrXrXrXrX$XOXrXrXrXrXrXrXrXrXrXrXrXrXrXrXrXrXrXrXrXrXrXrXrXrXrXrXrXrXrX",
"rXrXrXrXrXrXrXrXrXrXrXrXrXrXrXrXrXrXrXrXrXrXrXrXrXrXrXOXrXrXrXrXrXrXrXrXrXrXrXrXrXrXrXrXrXrXrXrXrXrXrXrXrXrXrXrXrXrXrXrXrXrXrXrX",
"rXrXrXrXrXrXrXrXrXrXrXrXrXrXrXrXrXrXrXrXrXrXrXrXrXrXrXrXrXrXrXrXrXrXrXrXrXrXrXrXrXrXrXrXrXrXrXrXrXrXrXrXrXrXrXrXrXrXrXrXrXrXrXrX"
};
