/* XPM */
static char *result[] = {
/* columns rows colors chars-per-pixel */
"32 32 191 2 ",
"   c #450000",
".  c #4C0000",
"X  c #540000",
"o  c #5C0000",
"O  c #630001",
"+  c #6B0001",
"@  c #6B020B",
"#  c #690D0D",
"$  c #730004",
"%  c #75010B",
"&  c #7A010E",
"*  c #720C0D",
"=  c #770414",
"-  c #7E0113",
";  c #7C0C15",
":  c #7C031A",
">  c #730318",
",  c #6B1216",
"<  c #7C151B",
"1  c #7A1A1D",
"2  c #781E20",
"3  c #7B2528",
"4  c #6E3A3B",
"5  c #7E393A",
"6  c #784445",
"7  c #82000A",
"8  c #840002",
"9  c #820313",
"0  c #8F0017",
"q  c #83051C",
"w  c #83091C",
"e  c #89071E",
"r  c #9D051D",
"t  c #A00117",
"y  c #850B20",
"u  c #890C25",
"i  c #8A0323",
"p  c #801621",
"a  c #8D1129",
"s  c #801A26",
"d  c #921A2D",
"f  c #941F33",
"g  c #AB0B29",
"h  c #B30E29",
"j  c #A6122B",
"k  c #A71934",
"l  c #B11130",
"z  c #B61B3A",
"x  c #83232B",
"c  c #89232C",
"v  c #82292D",
"b  c #8D2935",
"n  c #922F36",
"m  c #83353A",
"M  c #8B3438",
"N  c #8B383C",
"B  c #8A3437",
"V  c #97363F",
"C  c #CD102D",
"Z  c #893F42",
"A  c #913C43",
"S  c #9E3A46",
"D  c #D72E4E",
"F  c #F32A4E",
"G  c #E12F51",
"H  c #E53756",
"J  c #F53B5F",
"K  c #FB3B60",
"L  c #8F484C",
"P  c #884347",
"I  c #924444",
"U  c #944349",
"Y  c #9C464D",
"T  c #934A4D",
"R  c #864D50",
"E  c #924C50",
"W  c #9D4C53",
"Q  c #9D4F58",
"!  c #915052",
"~  c #975459",
"^  c #A2404A",
"/  c #A04A50",
"(  c #A94D58",
")  c #A2565C",
"_  c #A9535B",
"`  c #AC5D64",
"'  c #A35A60",
"]  c #B05A64",
"[  c #9C6261",
"{  c #A36261",
"}  c #AA646A",
"|  c #AC696E",
" . c #B3676E",
".. c #AE6670",
"X. c #AF6B72",
"o. c #B36E74",
"O. c #BA6B74",
"+. c #BF6F79",
"@. c #AF767D",
"#. c #B77075",
"$. c #BA737B",
"%. c #BB797F",
"&. c #B4797C",
"*. c #FF4466",
"=. c #FF476A",
"-. c #FF4B6E",
";. c #FF4E74",
":. c #FF5178",
">. c #FF587F",
",. c #BB7781",
"<. c #BD7E84",
"1. c #B67E85",
"2. c #C27C86",
"3. c #C57F88",
"4. c #CA7182",
"5. c #BD898D",
"6. c #BF9093",
"7. c #BF959A",
"8. c #C38189",
"9. c #C68189",
"0. c #CD8791",
"q. c #C28E94",
"w. c #C98991",
"e. c #D08B93",
"r. c #DD8E97",
"t. c #C5949A",
"y. c #CD979C",
"u. c #CB9196",
"i. c #D2949D",
"p. c #D99B9F",
"a. c #CD9DA4",
"s. c #D39FA8",
"d. c #D498A4",
"f. c #CFA7AB",
"g. c #CEA1A6",
"h. c #D4A3AC",
"j. c #DCA1AC",
"k. c #D6ACAF",
"l. c #DBA9AE",
"z. c #DDA7B1",
"x. c #D2ABB1",
"c. c #D9ACB3",
"v. c #CFB1B2",
"b. c #D8B4B9",
"n. c #E2A3AE",
"m. c #E4A6B1",
"M. c #ECABB5",
"N. c #E5AEBA",
"B. c #E0ACB2",
"V. c #F6AEBA",
"C. c #FAAFBB",
"Z. c #E1B4BB",
"A. c #E8B2BA",
"S. c #E5B9BF",
"D. c #F4B0BC",
"F. c #FAB2BE",
"G. c #E1B6C1",
"H. c #E3BCC3",
"J. c #EBBCC5",
"K. c #ECBDC9",
"L. c #F3B5C2",
"P. c #FAB6C2",
"I. c #F2BAC5",
"U. c #FCB9C5",
"Y. c #F4BDCA",
"T. c #FCBECB",
"R. c #E9C6CF",
"E. c #E6C3CA",
"W. c #F1C1CB",
"Q. c #FDC2CE",
"!. c #EDC7D0",
"~. c #EACDD6",
"^. c #F5C6D3",
"/. c #FEC4D1",
"(. c #F4C9D5",
"). c #FCCAD6",
"_. c #FFCDDB",
"`. c #EFD4DB",
"'. c #F8D0D7",
"]. c #F6D3DD",
"[. c #FDD1DD",
"{. c #FFD6E3",
"}. c #FFDAE6",
"|. c #FFDDEA",
" X c #FFE1EE",
".X c #FFE4F1",
"XX c #FFEAF6",
"oX c #FFEEFA",
"OX c #FFF5FF",
"+X c #FFFDFF",
"@X c None",
/* pixels */
"@X@X@X@X@X@X@X@X@X@X@X@X@X@X@X@X@X@XT.@X@X@X@X@X@X@X@X@X@X@X@X@X",
"@X@X@X@X@X@X@X@X@X@X@X@X@X@X@X@X}.i.m.@X@X@X@X@X@X@X@X@X@X@X@X@X",
"@X@X@X@X@X@X@X@X@X@X@X@X@X.X).0.c * Y.@X@XU.@X@X@X@X@X@X@X@X@X@X",
"@X@X@X@X@X@X@X@X@X@X@X XA.| 2 + + & Z.|./.).@X@X@X@X@X@X@X@X@X@X",
"@X@X@X@X@X@X@X@X@X@XK.U % O - y u % N q.#.| K.@X@X@X@X@X@X@X@X@X",
"@X@X@X@X@X@X@X@X@X X! o q u y y w u - ; = O 5.@X@X@X@X@X@X@X@X@X",
"@X@X@X@X@X@X@X@X@Xx.+ e w y y y y y y 9 w & 1 ~.@X@X@X@X@X@X@X@X",
"@X@X@X@X@X@X@X@X|.L $ u q y y y y y u q w a + I .X@X@X@X@X@X@X@X",
"@X@X@X@X@X@X@X@Xf.+ - + = + q u u u $ % $ $ i O 1.@X@X@X@X@X@X@X",
"@X@X@X@X@X@X@X|.P X ;  .Y.,.+ $ 9 O N J.i.b + + x ).@X@X@X@X@X@X",
"@X@X@X@X@X@X@Xt.O +.'.+X_. XZ.2 + <. X_.XXXXp.b + Z.@X@X@X@X@X@X",
"@X@X@X@X].u.W.< I +X^.s.{.C.}.~.z. XF._.H.j.+Xb.o 3.l.c.@X@X@X@X",
"@X@X@X~.P o @ + 4.^.B . 8.oXP.T.{.C.}.^., o d.A.w - o # t.XX@X@X",
"@X/.q., C J z O e.K.} )   ~ K.N.E.Z.s.  m O.5.Y.2 0 H F 7 R Y.@X",
"@X{.4 g :.*.D O H.+XP 6.j.) B U Z v T 2.S.L s.+Xm r =.=.K O x.@X",
"@X@Xg.9 G *.D + ) oX~.m h.m.O.+.3. .9.Y.E @.+Xy.@ j *.J r ' @X@X",
"@X@X@X6 O *.H : O M (.} A m.a.^..Xs.z.,.m K.5.O @ k ;.j . Z.@X@X",
"@X@X@X7.- ;.H = u @ O o.|.|.` i./.) N.oXj.1 o e > k >.h P @X@X@X",
"@X@X@Xa.$ l a : 9 - E.+XM.0.N.P.V.L.d.r.}.+X/ $ w y k 8 E @X@X@X",
"@X@X@XL.N o % d q c $.W ..0.n.U.T.V.i.,.) #./ % u & o , e.@X@X@X",
"@X@X@X@X@Xy.* ^ $ S %.j./.[.Q.P.P.U.)._.L.3._ w w ` w.@X@X@X@X@X",
"@X@X@X@X@X@Xt.W O ) +X/.P.P.P.P.P.P.L.P.P.+Xv.$ $ h.XX@X@X@X@X@X",
"@X@X@X@X@X@XXXY + O t..XD.U.U.P.P.L.P.P.T.].2 % + 8.|.@X@X@X@X@X",
"@X@X@X@X@X@X).c - - 1 ].{.C.P.P.P.U.P.T.OX{ + f O w.@X@X@X@X@X@X",
"@X@X@X@X@X@X@X3 N ( O 2 !. XP.P.P.P._..X{ + $ ` &.I.@X@X@X@X@X@X",
"@X@X@X@X@X@X@Xh.5.X.+ + # j.|.}.}.}.).I O 9 $ W OX@X@X@X@X@X@X@X",
"@X@X@X@X@X@X@X@X_.j.O n 3 O A _ ] Y < + d S o } @X@X@X@X@X@X@X@X",
"@X@X@X@X@X@X@X@XU.@Xc.a.H.* + + $ + = + [ X.3 oX@X@X@X@X@X@X@X@X",
"@X@X@X@X@X@X@X@X@X@X@X@X|.k.O % $ < U 1 N.A.G.@X@X@X@X@X@X@X@X@X",
"@X@X@X@X@X@X@X@X@X@X@X@X@XM.B H.M 8.Y.@X@XQ.@X@X@X@X@X@X@X@X@X@X",
"@X@X@X@X@X@X@X@X@X@X@X@X@XD.Y.@X[.Q.@X@X@X@X@X@X@X@X@X@X@X@X@X@X",
"@X@X@X@X@X@X@X@X@X@X@X@X@X@X@X@X@X@X@X@X@X@X@X@X@X@X@X@X@X@X@X@X"
};
