/* XPM */
static char *bitcoin321693750846[] = {
/* columns rows colors chars-per-pixel */
"32 32 245 2 ",
"   c None",
".  c #001618",
"X  c #001718",
"o  c #001619",
"O  c #001719",
"+  c #011719",
"@  c #00151A",
"#  c #00171A",
"$  c #00171B",
"%  c #061719",
"&  c #001918",
"*  c #001819",
"=  c #011819",
"-  c #001919",
";  c #031819",
":  c #00181A",
">  c #00191A",
",  c #01191A",
"<  c #00181B",
"1  c #00191B",
"2  c #021A1B",
"3  c #041819",
"4  c #061819",
"5  c #071819",
"6  c #071919",
"7  c #05181A",
"8  c #06191A",
"9  c #081819",
"0  c #091819",
"q  c #0B1819",
"w  c #08191A",
"e  c #09191A",
"r  c #0B1A1A",
"t  c #0F191A",
"y  c #151313",
"u  c #101515",
"i  c #131717",
"p  c #151515",
"a  c #161515",
"s  c #151616",
"d  c #141717",
"f  c #181414",
"g  c #181616",
"h  c #1D1817",
"j  c #131818",
"k  c #121919",
"l  c #131919",
"z  c #10191A",
"x  c #151819",
"c  c #151919",
"v  c #171818",
"b  c #171919",
"n  c #181919",
"m  c #191919",
"M  c #1A1818",
"N  c #1A1918",
"B  c #1A1919",
"V  c #1B1919",
"C  c gray10",
"Z  c #1C1818",
"A  c #1C1919",
"S  c #1D1919",
"D  c #1E1919",
"F  c #1C1A19",
"G  c #1E1A19",
"H  c #1C1A1A",
"J  c #1D1A1A",
"K  c #1C1B1B",
"L  c #1D1B1B",
"P  c #231918",
"I  c #221919",
"U  c #211A19",
"Y  c #231A19",
"T  c #221B1A",
"R  c #271B1A",
"E  c #201F1F",
"W  c #211F1F",
"Q  c #2A1918",
"!  c #2C1A19",
"~  c #2D1A19",
"^  c #2E1A19",
"/  c #321918",
"(  c #301A19",
")  c #311A19",
"_  c #371918",
"`  c #371A19",
"'  c #3C1A19",
"]  c #3D1A19",
"[  c #3E1A19",
"{  c #3F1B1A",
"}  c #391D1C",
"|  c #212020",
" . c #421A17",
".. c #4D1917",
"X. c #421A18",
"o. c #441B19",
"O. c #4A1918",
"+. c #491B19",
"@. c #4E1A18",
"#. c #561A17",
"$. c #5B1A17",
"%. c #5C1B17",
"&. c #501B18",
"*. c #511B18",
"=. c #501A19",
"-. c #501B19",
";. c #531A18",
":. c #541B18",
">. c #551B18",
",. c #561B18",
"<. c #551C1A",
"1. c #5E1A18",
"2. c #5F1A18",
"3. c #5F1C18",
"4. c #5E1D19",
"5. c #5C1E1A",
"6. c #691A17",
"7. c #6B1A17",
"8. c #6F1B17",
"9. c #631D19",
"0. c #671C18",
"q. c #661D1A",
"w. c #6D1B18",
"e. c #6E1B18",
"r. c #6A1C18",
"t. c #6D1C18",
"y. c #731B17",
"u. c #741B16",
"i. c #751B17",
"p. c #7C1B17",
"a. c #731B18",
"s. c #741B18",
"d. c #7A1F19",
"f. c #7D1C19",
"g. c #7F1D19",
"h. c #801B17",
"j. c #841B17",
"k. c #851B17",
"l. c #871B17",
"z. c #871C17",
"x. c #8C1B16",
"c. c #881C17",
"v. c #8B1D17",
"b. c #8D1C17",
"n. c #831D19",
"m. c #841C18",
"M. c #9A1C17",
"N. c #9D1E17",
"B. c #941E19",
"V. c #951E19",
"C. c #961E18",
"Z. c #941F1A",
"A. c #9B1C18",
"S. c #9D1E18",
"D. c #AC1B16",
"F. c #AB1D17",
"G. c #AC1D17",
"H. c #A11F19",
"J. c #B21D17",
"K. c #B51D17",
"L. c #B61D16",
"P. c #B61E17",
"I. c #BF1D15",
"U. c #BD1C16",
"Y. c #BD1D16",
"T. c #B21F18",
"R. c #B81F18",
"E. c #C01D16",
"W. c #C11D16",
"Q. c #C01D17",
"!. c #C31D17",
"~. c #C01E16",
"^. c #C11E16",
"/. c #C41D16",
"(. c #C51D17",
"). c #C61D16",
"_. c #C51E17",
"`. c #C91D16",
"'. c #C81D17",
"]. c #CB1C16",
"[. c #D11E16",
"{. c #D31E17",
"}. c #D71D17",
"|. c #D81E17",
" X c #DA1E16",
".X c #DC1D15",
"XX c #DE1D15",
"oX c #DF1E16",
"OX c #DC1F18",
"+X c #E11E16",
"@X c #E01F17",
"#X c #E21E16",
"$X c #E71D15",
"%X c #E91E14",
"&X c #E81D16",
"*X c #EA1D16",
"=X c #EB1D16",
"-X c #EC1D16",
";X c #ED1D16",
":X c #EE1D16",
">X c #EF1D16",
",X c #F01C16",
"<X c #F01D16",
"1X c #F11D16",
"2X c #F21D16",
"3X c #F31D16",
"4X c #F31E16",
"5X c #F61C15",
"6X c #F51E15",
"7X c #F71E15",
"8X c #F41D16",
"9X c #F51D16",
"0X c #F51D17",
"qX c #F61C16",
"wX c #F71D16",
"eX c #F51E16",
"rX c #F71E16",
"tX c #FF1B14",
"yX c #F81D16",
"uX c #F91D16",
"iX c #FA1D16",
"pX c #FB1D16",
"aX c #F81E16",
"sX c #FA1E16",
"dX c #FD1D15",
"fX c #FF1D14",
"gX c #FE1D15",
"hX c #FF1D15",
"jX c #FD1E15",
"kX c #FF1E14",
"lX c #FF1F14",
"zX c #FE1E15",
"xX c #FF1E15",
"cX c #FF1F15",
"vX c #FC1D16",
"bX c #FD1D16",
"nX c #FF1D16",
"mX c #FC1E16",
"MX c #FE1E16",
"NX c #FF1E16",
"BX c #FF1F16",
"VX c #FE1F17",
"CX c #FA2017",
"ZX c #FF2015",
"AX c #FF2017",
/* pixels */
"                        C Z Z Z Z Z F C                         ",
"                  C Z C 9 < < $ < < < e v h C                   ",
"              C Z c $ $ U &.8.j.j.8.&.T < $ j T C               ",
"            Z C $ < >.G.<XkXlXlXlXlXkX<XF.>.< $ C Z             ",
"          Z c < ' I.lXlXnX,X;X;X=X;X,XvXlXlXQ.[ < c Z           ",
"        f l < s.ZXlXvXvXnXnXlXlXtXlX0X,X,X,XvXlXi.< l y         ",
"      Z d $ c.lX|.).(.(.(.(.).).Q.{.lXlX,X,X-XvXZXk.< v Z       ",
"    E y 1 s.lXlXZ $ e 8 8 % 8 e 8 r { R.vX,X-X-X0XZXi.< a W     ",
"    Z < ` lXvXiXT < e $ $ $ $ < < $ $ < H.vX,X,X;XaXlX` $ h     ",
"  K u < {.lXiXiX! $ [ B.B.Z.B.B.p.R < % 1 @XlX,X<X;XlX[.$ u Z   ",
"  h $ #.lX<XiXiX! $ 6.ZXvXlXlXlXkXCX4.8 < n.lX-X;X;X<XlX>.$ Z   ",
"  a < L.AX-XvXiX! $ %.lX,X,X,X-X=XkXZXT < <.vX,X<X<X;XlXL.1 a   ",
"f 8 Z aXlX;XvXiX! $ 1.lX2X>X,X-XaXkXXXl < r.lX-X<X<X;XlX0XZ e f ",
"F < &.lX0X;XiXiX( $ 1.tX2X>X,X,XaXJ.Z < < L.lXlX;X;X;X0XlX&.< F ",
"Z < t.ZX;X<XaXiX( $ %.lX2X>X2XlXr.< 8 Z c X.7.XXlX;X;X<XZXt.< Z ",
"Z < k.ZX;X<XlXiXi $ ..lX2X>X2XlX..$ T 8 < $ $ q U.lX;X;XlXn.< Z ",
"Z < n.vX>X>XaX<X5.} n.lX,X-X,XlX@.< C &.&.V $ $ $ XXaX;XlXj.$ Z ",
"Z < a.lX>X>X>X>XAXAXvX<X,X-X,XlXA.< < c.lX$X%.% < 6.lX;XlXe.1 Z ",
"F < -.lX2X>X>X>X0X0X0X;X,X-X>XqXlX( X e #XlXkX .$ _ kXtXlX-.$ Z ",
"f 8 Z 0XtX>X>X>X;X;X-X,X-X-X>X*XlXJ.< X >.lXlX%.$ ( kXlX0XZ % V ",
"  a < L.lX=XlXlXlXlXlXlXlXlXlXlXlXlX+.$ <  XD.8 $ >.lXlXL.< a   ",
"  Z X <.lX0Xb.p.j.j.j.j.j.k.j.j.j.x.N.l X 0.y.$ $ U.nXlX<.$ Z   ",
"  F u < #XkX< < $ 1 $ $ $ X < < $ $ 9.8.X r G.P u.lXlX[.1 u Z   ",
"    h <  .ZXQ $ e % % q e e e e q $ q d.v $ ( %XlXlXZX' < Z     ",
"    | y < y.CX'.(.).).'.(.).'.).'.].U.#X3.< < N.tXlXs.1 y E     ",
"      F i < M.kXvXlXlXvXvXlXvXvXAXvXvXvX=X).'.}.vXj.1 d L       ",
"        y l < y.lXlX<X;X-X,X-X,X;X;X-X-XaXlXkXlXs.1 c f         ",
"          h v < [ ~.lXlXvX0X,X-X;X<X,XtXlXlX~.] $ d Z           ",
"            C v < < <.G.,XlXlXlXlXlXlX,XG.#.< < Z Z             ",
"              Z Z l < X T &.e.n.j.e.&.T $ $ i Z C               ",
"                  Z Z d q $ 1 < < < $ q C C C                   ",
"                        V C Z Z Z Z C V                         "
};
