/* XPM */
static char *result[] = {
/* columns rows colors chars-per-pixel */
"16 16 140 2 ",
"   c #4B0000",
".  c #4F0000",
"X  c #500000",
"o  c #510000",
"O  c #5C0004",
"+  c #630000",
"@  c #600201",
"#  c #650000",
"$  c #670000",
"%  c #670001",
"&  c #6A0000",
"*  c #6B0000",
"=  c #6D0003",
"-  c #770003",
";  c #740004",
":  c #770008",
">  c #790009",
",  c #7C040E",
"<  c #75090D",
"1  c #680D12",
"2  c #7D0011",
"3  c #770F13",
"4  c #771215",
"5  c #731018",
"6  c #701518",
"7  c #7F171C",
"8  c #772928",
"9  c #7E292C",
"0  c #782F32",
"q  c #96071F",
"w  c #81141B",
"e  c #82181E",
"r  c #96151D",
"t  c #A10416",
"y  c #890822",
"u  c #8D0C26",
"i  c #861E24",
"p  c #BA0223",
"a  c #AB182C",
"s  c #B7182E",
"d  c #AE1C32",
"f  c #BD1435",
"g  c #862127",
"h  c #89252D",
"j  c #872C2E",
"k  c #902834",
"l  c #9C2738",
"z  c #873035",
"x  c #853638",
"c  c #8F3639",
"v  c #8F393C",
"b  c #93353F",
"n  c #8B3F43",
"m  c #8A3D44",
"M  c #EE1942",
"N  c #F91E49",
"B  c #964249",
"V  c #96494F",
"C  c #9B484C",
"Z  c #984C50",
"A  c #9C4F57",
"S  c #95575D",
"D  c #9F555B",
"F  c #A24D54",
"G  c #A44F59",
"H  c #AE515B",
"J  c #A45F68",
"K  c #A96367",
"L  c #A5646B",
"P  c #A5676C",
"I  c #AB676A",
"U  c #AA646C",
"Y  c #AF666F",
"T  c #B1606A",
"R  c #A26F73",
"E  c #BE6E79",
"W  c #B9777E",
"Q  c #B9777F",
"!  c #B87B7F",
"~  c #C0797F",
"^  c #AE7E83",
"/  c #B87D84",
"(  c #B97F88",
")  c #BC8189",
"_  c #BC868C",
"`  c #B09495",
"'  c #C78A96",
"]  c #CE9199",
"[  c #CA979C",
"{  c #C19EA2",
"}  c #C89BA3",
"|  c #CA9CA3",
" . c #D2A7AF",
".. c #DBA3AE",
"X. c #D9A4AD",
"o. c #DCA6B1",
"O. c #D0ACB5",
"+. c #C5B3B0",
"@. c #D9B2B9",
"#. c #D8B5BC",
"$. c #D2BFBE",
"%. c #E0AAB4",
"&. c #E2AAB6",
"*. c #E3AAB6",
"=. c #EEABB7",
"-. c #E1AEB9",
";. c #E5AEBA",
":. c #E4B5BD",
">. c #F6B0BD",
",. c #F7B1BE",
"<. c #FEB3BF",
"1. c #DCB7C0",
"2. c #E8B6C0",
"3. c #E3BFC7",
"4. c #E6BDC5",
"5. c #EDB9C5",
"6. c #EDBEC8",
"7. c #F6B2C0",
"8. c #FEB6C2",
"9. c #FEBDC9",
"0. c #FEBEC9",
"q. c #DDC9CF",
"w. c #E2C5C9",
"e. c #E5CCD1",
"r. c #F0C5D1",
"t. c #F2C6D1",
"y. c #F7C6D2",
"u. c #FBCCD8",
"i. c #F0D5DC",
"p. c #E9DDE4",
"a. c #FFD5E0",
"s. c #F6E0E6",
"d. c #FFE0ED",
"f. c #FFE1F0",
"g. c #FFE2F2",
"h. c #FFE6F2",
"j. c #FFF0FF",
"k. c #FFF9FF",
"l. c white",
"z. c None",
/* pixels */
"z.z.z.z.z.z.z.z.r.z.z.z.z.z.z.z.",
"z.z.z.z.z.z.:.F < 4.h.z.z.z.z.z.",
"z.z.z.z.z.J $ * : b B w.z.z.z.z.",
"z.z.z.z.O.o & y u %   Z z.z.z.z.",
"z.z.z.z.0 h T = + G H X { z.z.z.",
"z.z.z.P C i.l.] ~ k.s.I n q.z.z.",
"z.' d , #.S L u.a.) x 1.k t E z.",
"z.v M a +.} A Y U D / $.l N r z.",
"z.` s f 1 _ o.;.*...| 8 q p R z.",
"z.z.e - 2 ! -.=.>.&.[ w > ; @.z.",
"z.z.z.z j 2.7.0.9.,.y.c 7 p.z.z.",
"z.z.z.( .  .j.8.<.g.e.# V z.z.z.",
"z.z.z.X.m o W f.d.%.@ 6 5.z.z.z.",
"z.z.z.z.t.K 9 3 i O 5 ^ z.z.z.z.",
"z.z.z.z.z.z.3.4 g Q 6.z.z.z.z.z.",
"z.z.z.z.z.z.z.z.z.z.z.z.z.z.z.z."
};
