<?xml version="1.0" standalone="yes"?>
<svg xmlns="http://www.w3.org/2000/svg" width="1024" height="1024">
<path style="fill:#141212; stroke:none;" d="M0 0L0 1024L1024 1024L1024 0L0 0z"/>
<path style="fill:#818181; stroke:none;" d="M480 0L481 1L480 0M543 0L544 1L543 0z"/>
<path style="fill:#91361b; stroke:none;" d="M456 2L457 3L456 2M567 2L568 3L567 2z"/>
<path style="fill:#818181; stroke:none;" d="M392 13L393 14L392 13M631 13L632 14L631 13z"/>
<path style="fill:#91361b; stroke:none;" d="M388 14L389 15L388 14M635 14L636 15L635 14z"/>
<path style="fill:#ffffff; stroke:none;" d="M380 16L381 17L380 16M643 16L644 17L643 16M359 22L360 23L359 22M664 22L665 23L664 22z"/>
<path style="fill:#91361b; stroke:none;" d="M356 23L357 24L356 23M667 23L668 24L667 23M344 27L345 28L344 27M679 27L680 28L679 27z"/>
<path style="fill:#ffffff; stroke:none;" d="M341 28L342 29L341 28M682 28L683 29L682 28z"/>
<path style="fill:#91361b; stroke:none;" d="M315 38L316 39L315 38M708 38L709 39L708 38z"/>
<path style="fill:#ffffff; stroke:none;" d="M301 44L302 45L301 44M722 44L723 45L722 44z"/>
<path style="fill:#818181; stroke:none;" d="M265 62L266 63L265 62M758 62L759 63L758 62z"/>
<path style="fill:#ffffff; stroke:none;" d="M256 67L257 68L256 67M767 67L768 68L767 67z"/>
<path style="fill:#91361b; stroke:none;" d="M251 70L252 71L251 70M772 70L773 71L772 70z"/>
<path style="fill:#ef1d17; stroke:none;" d="M80 80L80 235L81 235C122.606 173.327 173.327 122.606 235 81C223.068 75.9932 201.991 80 189 80L80 80z"/>
<path style="fill:#91361b; stroke:none;" d="M491 80L491 81L499 81L491 80z"/>
<path style="fill:#ef1d17; stroke:none;" d="M499 80.4244C463.451 85.092 428.938 86.4687 394 96.4275C290.665 125.883 199.985 194.31 143.811 286C39.6612 455.998 66.8441 687.832 214 824.911C270.57 877.607 338.11 913.742 413 932.373C461.831 944.522 514.207 946.911 564 940.715C775.766 914.367 938.77 732.926 943.985 520C948.806 323.219 809.888 141.349 619 93.6265C581.855 84.3403 537.366 75.3869 499 80.4244z"/>
<path style="fill:#91361b; stroke:none;" d="M525 80L525 81L533 81L525 80z"/>
<path style="fill:#ef1d17; stroke:none;" d="M789 80L789 81C850.673 122.606 901.394 173.327 943 235L944 235L944 80L789 80z"/>
<path style="fill:#91361b; stroke:none;" d="M476 81L476 82L480 82L476 81M544 81L544 82L548 82L544 81M465 82L465 83L468 83L465 82M556 82L556 83L559 83L556 82M457.667 83.3333L458.333 83.6667L457.667 83.3333M565.667 83.3333L566.333 83.6667L565.667 83.3333M450.667 84.3333L451.333 84.6667L450.667 84.3333M572.667 84.3333L573.333 84.6667L572.667 84.3333M443.667 85.3333L444.333 85.6667L443.667 85.3333M579.667 85.3333L580.333 85.6667L579.667 85.3333M437.667 86.3333L438.333 86.6667L437.667 86.3333M585.667 86.3333L586.333 86.6667L585.667 86.3333M432 87L433 88L432 87M591 87L592 88L591 87M426.667 88.3333L427.333 88.6667L426.667 88.3333M596.667 88.3333L597.333 88.6667L596.667 88.3333M422 89L423 90L422 89M601 89L602 90L601 89M417 90L418 91L417 90M606 90L607 91L606 90M413 91L414 92L413 91M610 91L611 92L610 91M409 92L410 93L409 92M614 92L615 93L614 92M404.667 93.3333L405.333 93.6667L404.667 93.3333M618.667 93.3333L619.333 93.6667L618.667 93.3333M401 94L402 95L401 94M622 94L623 95L622 94M397 95L398 96L397 95M626 95L627 96L626 95M393 96L394 97L393 96M630 96L631 97L630 96z"/>
<path style="fill:#ffffff; stroke:none;" d="M210 97L211 98L210 97z"/>
<path style="fill:#91361b; stroke:none;" d="M390 97L391 98L390 97M633 97L634 98L633 97z"/>
<path style="fill:#ffffff; stroke:none;" d="M813 97L814 98L813 97z"/>
<path style="fill:#91361b; stroke:none;" d="M387 98L388 99L387 98M636 98L637 99L636 98M383 99L384 100L383 99M640 99L641 100L640 99M380 100L381 101L380 100M643 100L644 101L643 100M377 101L378 102L377 101M646 101L647 102L646 101M374 102L375 103L374 102M649 102L650 103L649 102M371 103L372 104L371 103M652 103L653 104L652 103M368 104L369 105L368 104M655 104L656 105L655 104M363 106L364 107L363 106M660 106L661 107L660 106M360 107L361 108L360 107M663 107L664 108L663 107M355 109L356 110L355 109M668 109L669 110L668 109z"/>
<path style="fill:#818181; stroke:none;" d="M193 110L194 111L193 110M830 110L831 111L830 110z"/>
<path style="fill:#91361b; stroke:none;" d="M350 111L351 112L350 111M673 111L674 112L673 111M345 113L346 114L345 113M678 113L679 114L678 113M340 115L341 116L340 115M683 115L684 116L683 115M338 116L339 117L338 116M685 116L686 117L685 116M336 117L337 118L336 117M687 117L688 118L687 117M334 118L335 119L334 118M689 118L690 119L689 118M329 120L330 121L329 120M694 120L695 121L694 120M327 121L328 122L327 121M696 121L697 122L696 121M325 122L326 123L325 122M698 122L699 123L698 122M323 123L324 124L323 123M700 123L701 124L700 123M321 124L322 125L321 124M702 124L703 125L702 124M175 125L176 126L175 125M319 125L320 126L319 125M704 125L705 126L704 125M848 125L849 126L848 125M317 126L318 127L317 126M706 126L707 127L706 126M315 127L316 128L315 127M708 127L709 128L708 127M313 128L314 129L313 128M710 128L711 129L710 128M311 129L312 130L311 129M712 129L713 130L712 129M309 130L310 131L309 130M714 130L715 131L714 130M307 131L308 132L307 131M716 131L717 132L716 131M302 134L303 135L302 134M721 134L722 135L721 134M300 135L301 136L300 135M723 135L724 136L723 135M295 138L296 139L295 138M728 138L729 139L728 138M293 139L294 140L293 139M730 139L731 140L730 139M288 142L289 143L288 142M735 142L736 143L735 142M283 145L284 146L283 145M740 145L741 146L740 145M280 147L281 148L280 147M743 147L744 148L743 147M277 149L278 150L277 149M746 149L747 150L746 149M274 151L275 152L274 151M749 151L750 152L749 151M268 155L269 156L268 155M755 155L756 156L755 155M265 157L266 158L265 157M758 157L759 158L758 157M262 159L263 160L262 159M761 159L762 160L761 159M261 160L262 161L261 160M762 160L763 161L762 160M258 162L259 163L258 162M765 162L766 163L765 162M255 164L256 165L255 164M768 164L769 165L768 164M251 167L252 168L251 167M772 167L773 168L772 167M250 168L251 169L250 168M773 168L774 169L773 168M246 171L247 172L246 171M777 171L778 172L777 171M245 172L246 173L245 172M778 172L779 173L778 172M125 175L126 176L125 175M241 175L242 176L241 175M782 175L783 176L782 175M898 175L899 176L898 175M237 178L238 179L237 178M786 178L787 179L786 178M236 179L237 180L236 179M787 179L788 180L787 179M235 180L236 181L235 180M788 180L789 181L788 180M229 185L230 186L229 185M794 185L795 186L794 185M228 186L229 187L228 186M795 186L796 187L795 186M222 191L223 192L222 191M801 191L802 192L801 191M221 192L222 193L221 192M802 192L803 193L802 192z"/>
<path style="fill:#818181; stroke:none;" d="M110 193L111 194L110 193z"/>
<path style="fill:#91361b; stroke:none;" d="M220 193L221 194L220 193M803 193L804 194L803 193z"/>
<path style="fill:#818181; stroke:none;" d="M913 193L914 194L913 193z"/>
<path style="fill:#91361b; stroke:none;" d="M219 194L220 195L219 194M804 194L805 195L804 194M218 195L219 196L218 195M805 195L806 196L805 195z"/>
<path style="fill:#ffffff; stroke:none;" d="M97 210L98 211L97 210M926 210L927 211L926 210z"/>
<path style="fill:#91361b; stroke:none;" d="M195 218L196 219L195 218M258 218L258 538L300 537L342 538L342 304L341 304L341 410L341 498C341 506.94 344.44 524.969 339.682 532.721C336.588 537.763 326.975 536 322 536L277 536C272.038 536 264.196 537.446 260.862 532.772C257.836 528.529 260 519.995 260 515L260 469L260 291L260 240C260 235.025 257.906 225.331 261.529 221.434C267.589 214.914 291.532 219 300 219L411 219C496.345 219 596.971 203.15 656.789 279C666.169 290.894 674.171 303.979 679.988 318C686.756 334.309 691.551 353.271 691.985 371C692.698 400.09 682.769 422.825 675 450L676 450C696.127 413.036 697.438 368.838 686.254 329C683.097 317.754 674.053 307.144 672 296C665.625 290.093 662.088 281.357 656.255 274.804C640.9 257.555 623.047 242.846 602 233.084C560.182 213.689 514.863 218 470 218L258 218z"/>
<path style="fill:#141212; stroke:none;" d="M544 218L545 219L544 218z"/>
<path style="fill:#818181; stroke:none;" d="M547.667 218.333L548.333 218.667L547.667 218.333z"/>
<path style="fill:#91361b; stroke:none;" d="M828 218L829 219L828 218M194 219L195 220L194 219z"/>
<path style="fill:#141212; stroke:none;" d="M584 332L586 334C594.286 335.525 603.593 349.953 604 358C608.287 358 609.842 370.216 610 374C610.573 387.759 605.906 400.033 597.833 411C595.64 413.98 592.975 419 589 419C586.116 429.029 561.171 442.67 551 442C551 446.004 543.243 446.683 540 446C540 448.436 539.214 447.615 537 447C537 449.854 535.314 448.67 533 448C533 451.292 524.727 450.426 523.333 456C521.051 465.128 523 476.539 523 486C523 502.353 520.004 522.017 523.333 538C527.941 560.116 545.342 583.121 555.833 603C579.133 647.147 601.511 691.81 624.833 736C633.594 752.599 642.052 769.361 650.833 786C653.58 791.205 655.772 800.242 661 803.5C667.395 807.485 677.94 804 685 804C699.361 804 713.798 803.197 728 803C736.995 802.875 747.359 804.501 756 802C756 795.468 750.73 790.461 748 785C740.864 770.728 733.122 756.924 725 743C697.975 696.671 672.002 648.005 648 600C640.184 584.368 630.781 569.562 623 554C621.519 551.039 613.28 541.44 615 538C616.916 534.167 629.102 536 633 536C649.118 536 660.159 536.29 675 540C679.186 541.047 688.715 542.141 688 545L691 544L690 546C692.95 545.017 693.622 544.513 693 547C696.047 546.492 697.647 546.413 697 549L702 549C702.93 553.477 707.734 555.04 712 555C712.98 559.967 720.157 565.187 725 566L730 571L731 572C731.188 576.237 733.241 578.204 737 580L736 583L739 583L738 586C740.997 586 740.268 588.45 740 591L742 590L741 594L742 594L742 592L743 592L742 596L743 600L744 600L744 598L745 598L746 622L745 622L745 618L744 618L745 628L744 628L744 626L743 626L744 631C741.084 631.405 741.533 633.308 742 636L740 635L741 638L739 637L740 640C735.07 641.017 730.596 649.23 730 654L729 655L726 658L725 659L723 658L722 659L723 661L718 662L717 663L718 665L713 666L710 668L707 677L708 677L709 675L710 679L708 678L713 682L712 685L714 684L713 687L716 687L714 689L721 696L721 700L723 699L723 704L725 706L727 710L729 713L731 712L730 716L731 716L732 714C735.227 724.196 744.399 741.911 754 747L753 745L756 746L757 742L760 743L760 740L763 741L765 739L765 736L768 737L773 733L779 724L780 723L784 719L785 718L787 719L788 718L787 716L788 715L790 716L789 713L791 714L793 712C792.936 709.681 792.823 708.476 795 710L796 704L798 706L798 701L800 702L800 698L801 700L802 700C801.455 696.732 801.297 695.324 804 696C803.47 693.351 803.572 692.393 806 693L805 690L808 690L807 687L809 688L808 685L811 685L810 681L812 682L811 679L814 679L813 675L815 676C813.919 672.756 814.35 669.337 817 670L816 666L817 666L817 668L818 668L820 660L819 657L821 658L821 657L820 653C826.222 655.489 819.393 644.848 824 646L826.571 620.83L826 587C822.258 587 823.203 580.753 824 578C821.146 578 822.33 576.314 823 574L822 570L821 570L821 572L820 572L821 567L820 563C817.564 563 818.385 562.214 819 560C816.564 560 817.385 559.214 818 557C815.003 557 815.732 554.55 816 552L814 553C811.873 542.367 807.025 535.037 801 526C785.026 502.038 762.645 482.323 738 470C733.174 467.587 713.276 461.895 714 459C710.786 460.071 706.335 459.66 707 457C703.927 458.024 701.236 459.055 702 456C698.927 457.024 696.236 458.055 697 455L689 456L689 455L692 455L692 454L675 453C677.356 441.993 682.759 431.805 685.964 421C690.949 404.193 693.11 385.492 691.911 368C690.638 349.435 686.173 329.85 678.219 313C671.424 298.603 663.186 285.04 652.711 273C591.431 202.568 491.446 219 408 219L300 219L273 219C269.474 219 264.382 218.192 261.515 220.742C257.681 224.151 259.998 232.446 260 237L260 282L260 466L260 517C259.992 521.941 257.262 530.501 261.514 534.258C265.224 537.536 273.416 536 278 536L323 536C327.607 536 337.636 537.849 340.106 532.721C342.186 528.405 341 521.668 341 517L341 483L341 360L341 318C341 313.548 339.605 305.999 343.434 302.742C347.097 299.626 354.54 301 359 301L398 301C444.945 301 495.335 295.635 541 308.152C552.6 311.332 563.876 316.609 574 323.054C577.592 325.341 582.599 327.825 584 332z"/>
<path style="fill:#818181; stroke:none;" d="M556 219L557 220L556 219z"/>
<path style="fill:#91361b; stroke:none;" d="M829 219L830 220L829 219M193 220L194 221L193 220z"/>
<path style="fill:#818181; stroke:none;" d="M562.667 220.333L563.333 220.667L562.667 220.333z"/>
<path style="fill:#91361b; stroke:none;" d="M830 220L831 221L830 220M192 221L193 222L192 221z"/>
<path style="fill:#818181; stroke:none;" d="M567 221L568 222L567 221z"/>
<path style="fill:#91361b; stroke:none;" d="M831 221L832 222L831 221M191 222L192 223L191 222M832 222L833 223L832 222z"/>
<path style="fill:#818181; stroke:none;" d="M575 223L576 224L575 223z"/>
<path style="fill:#141212; stroke:none;" d="M578 224L579 225L578 224z"/>
<path style="fill:#818181; stroke:none;" d="M579 224L580 225L579 224M582 225L583 226L582 225M585 226L586 227L585 226M588 227L589 228L588 227z"/>
<path style="fill:#91361b; stroke:none;" d="M186 228L187 229L186 228M837 228L838 229L837 228M185 229L186 230L185 229z"/>
<path style="fill:#818181; stroke:none;" d="M593 229L594 230L593 229z"/>
<path style="fill:#91361b; stroke:none;" d="M838 229L839 230L838 229z"/>
<path style="fill:#818181; stroke:none;" d="M596 230L597 231L596 230M598 231L599 232L598 231M600 232L601 233L600 232M604 234L605 235L604 234z"/>
<path style="fill:#91361b; stroke:none;" d="M180 235L181 236L180 235M843 235L844 236L843 235M179 236L180 237L179 236z"/>
<path style="fill:#818181; stroke:none;" d="M608 236L609 237L608 236z"/>
<path style="fill:#91361b; stroke:none;" d="M844 236L845 237L844 236M178 237L179 238L178 237z"/>
<path style="fill:#818181; stroke:none;" d="M610 237L611 238L610 237z"/>
<path style="fill:#91361b; stroke:none;" d="M845 237L846 238L845 237z"/>
<path style="fill:#818181; stroke:none;" d="M613 239L614 240L613 239M615 240L616 241L615 240z"/>
<path style="fill:#91361b; stroke:none;" d="M175 241L176 242L175 241z"/>
<path style="fill:#818181; stroke:none;" d="M617 241L618 242L617 241z"/>
<path style="fill:#91361b; stroke:none;" d="M848 241L849 242L848 241z"/>
<path style="fill:#818181; stroke:none;" d="M620 243L621 244L620 243z"/>
<path style="fill:#91361b; stroke:none;" d="M172 245L173 246L172 245z"/>
<path style="fill:#818181; stroke:none;" d="M623 245L624 246L623 245z"/>
<path style="fill:#91361b; stroke:none;" d="M851 245L852 246L851 245M171 246L172 247L171 246M852 246L853 247L852 246z"/>
<path style="fill:#818181; stroke:none;" d="M626 247L627 248L626 247M627 248L628 249L627 248z"/>
<path style="fill:#91361b; stroke:none;" d="M168 250L169 251L168 250z"/>
<path style="fill:#818181; stroke:none;" d="M630 250L631 251L630 250z"/>
<path style="fill:#91361b; stroke:none;" d="M855 250L856 251L855 250M70 251L71 252L70 251M167 251L168 252L167 251z"/>
<path style="fill:#818181; stroke:none;" d="M631 251L632 252L631 251z"/>
<path style="fill:#91361b; stroke:none;" d="M856 251L857 252L856 251M953 251L954 252L953 251z"/>
<path style="fill:#818181; stroke:none;" d="M635 254L636 255L635 254z"/>
<path style="fill:#91361b; stroke:none;" d="M164 255L165 256L164 255z"/>
<path style="fill:#818181; stroke:none;" d="M636 255L637 256L636 255z"/>
<path style="fill:#91361b; stroke:none;" d="M859 255L860 256L859 255z"/>
<path style="fill:#ffffff; stroke:none;" d="M67 256L68 257L67 256M956 256L957 257L956 256z"/>
<path style="fill:#91361b; stroke:none;" d="M162 258L163 259L162 258M861 258L862 259L861 258z"/>
<path style="fill:#141212; stroke:none;" d="M640 259L641 260L640 259z"/>
<path style="fill:#91361b; stroke:none;" d="M160 261L161 262L160 261M863 261L864 262L863 261M159 262L160 263L159 262z"/>
<path style="fill:#818181; stroke:none;" d="M644 262L645 263L644 262z"/>
<path style="fill:#91361b; stroke:none;" d="M864 262L865 263L864 262z"/>
<path style="fill:#818181; stroke:none;" d="M645 263L646 264L645 263M646 264L647 265L646 264M62 265L63 266L62 265z"/>
<path style="fill:#91361b; stroke:none;" d="M157 265L158 266L157 265z"/>
<path style="fill:#818181; stroke:none;" d="M647 265L648 266L647 265z"/>
<path style="fill:#91361b; stroke:none;" d="M866 265L867 266L866 265z"/>
<path style="fill:#818181; stroke:none;" d="M961 265L962 266L961 265M648 266L649 267L648 266M649 267L650 268L649 267z"/>
<path style="fill:#91361b; stroke:none;" d="M155 268L156 269L155 268M868 268L869 269L868 268z"/>
<path style="fill:#141212; stroke:none;" d="M652 271L653 272L652 271z"/>
<path style="fill:#91361b; stroke:none;" d="M151 274L152 275L151 274M872 274L873 275L872 274z"/>
<path style="fill:#818181; stroke:none;" d="M656 275L657 276L656 275z"/>
<path style="fill:#91361b; stroke:none;" d="M149 277L150 278L149 277M874 277L875 278L874 277M147 280L148 281L147 280z"/>
<path style="fill:#818181; stroke:none;" d="M660 280L661 281L660 280z"/>
<path style="fill:#91361b; stroke:none;" d="M876 280L877 281L876 280M145 283L146 284L145 283M878 283L879 284L878 283z"/>
<path style="fill:#818181; stroke:none;" d="M663 284L664 285L663 284M665 287L666 288L665 287z"/>
<path style="fill:#91361b; stroke:none;" d="M142 288L143 289L142 288M881 288L882 289L881 288z"/>
<path style="fill:#818181; stroke:none;" d="M667 290L668 291L667 290z"/>
<path style="fill:#141212; stroke:none;" d="M668 292L669 293L668 292z"/>
<path style="fill:#91361b; stroke:none;" d="M139 293L140 294L139 293z"/>
<path style="fill:#818181; stroke:none;" d="M669 293L670 294L669 293z"/>
<path style="fill:#91361b; stroke:none;" d="M884 293L885 294L884 293z"/>
<path style="fill:#141212; stroke:none;" d="M669 294L670 295L669 294z"/>
<path style="fill:#91361b; stroke:none;" d="M138 295L139 296L138 295M885 295L886 296L885 295z"/>
<path style="fill:#141212; stroke:none;" d="M671 297L672 298L671 297z"/>
<path style="fill:#818181; stroke:none;" d="M672 298L673 299L672 298z"/>
<path style="fill:#91361b; stroke:none;" d="M135 300L136 301L135 300z"/>
<path style="fill:#818181; stroke:none;" d="M673 300L674 301L673 300z"/>
<path style="fill:#91361b; stroke:none;" d="M888 300L889 301L888 300z"/>
<path style="fill:#ffffff; stroke:none;" d="M44 301L45 302L44 301z"/>
<path style="fill:#91361b; stroke:none;" d="M342 302L342 303L454 303C477.201 303 501.097 301.269 524.004 305.613C537.768 308.223 551.473 312.502 564 318.809C571.169 322.419 577.29 328.688 585 331C573.331 317.863 552.586 310.774 536 306.627C493.786 296.071 447.224 301 404 301C384.472 301 361.003 297.476 342 302z"/>
<path style="fill:#ffffff; stroke:none;" d="M979 301L980 302L979 301z"/>
<path style="fill:#91361b; stroke:none;" d="M134 302L135 303L134 302M889 302L890 303L889 302z"/>
<path style="fill:#818181; stroke:none;" d="M508 303L508 304L511 304L508 303M517 304L518 305L517 304M523 305L524 306L523 305M528 306L529 307L528 306z"/>
<path style="fill:#91361b; stroke:none;" d="M131 307L132 308L131 307M892 307L893 308L892 307M130 309L131 310L130 309z"/>
<path style="fill:#818181; stroke:none;" d="M540 309L541 310L540 309z"/>
<path style="fill:#91361b; stroke:none;" d="M893 309L894 310L893 309z"/>
<path style="fill:#818181; stroke:none;" d="M543 310L544 311L543 310M678 310L679 311L678 310z"/>
<path style="fill:#91361b; stroke:none;" d="M129 311L130 312L129 311z"/>
<path style="fill:#818181; stroke:none;" d="M546 311L547 312L546 311z"/>
<path style="fill:#91361b; stroke:none;" d="M894 311L895 312L894 311z"/>
<path style="fill:#818181; stroke:none;" d="M549 312L550 313L549 312M679 312L680 313L679 312z"/>
<path style="fill:#91361b; stroke:none;" d="M128 313L129 314L128 313z"/>
<path style="fill:#818181; stroke:none;" d="M552 313L553 314L552 313z"/>
<path style="fill:#91361b; stroke:none;" d="M895 313L896 314L895 313z"/>
<path style="fill:#818181; stroke:none;" d="M554 314L555 315L554 314z"/>
<path style="fill:#91361b; stroke:none;" d="M38 315L39 316L38 315M127 315L128 316L127 315M896 315L897 316L896 315M985 315L986 316L985 315M126 317L127 318L126 317z"/>
<path style="fill:#818181; stroke:none;" d="M561 317L562 318L561 317z"/>
<path style="fill:#91361b; stroke:none;" d="M897 317L898 318L897 317z"/>
<path style="fill:#818181; stroke:none;" d="M563 318L564 319L563 318z"/>
<path style="fill:#91361b; stroke:none;" d="M125 319L126 320L125 319z"/>
<path style="fill:#818181; stroke:none;" d="M565 319L566 320L565 319M682 319L683 320L682 319z"/>
<path style="fill:#91361b; stroke:none;" d="M898 319L899 320L898 319z"/>
<path style="fill:#818181; stroke:none;" d="M567 320L568 321L567 320z"/>
<path style="fill:#91361b; stroke:none;" d="M124 321L125 322L124 321M899 321L900 322L899 321z"/>
<path style="fill:#818181; stroke:none;" d="M570 322L571 323L570 322z"/>
<path style="fill:#91361b; stroke:none;" d="M123 323L124 324L123 323M900 323L901 324L900 323M122 325L123 326L122 325z"/>
<path style="fill:#818181; stroke:none;" d="M575 325L576 326L575 325z"/>
<path style="fill:#91361b; stroke:none;" d="M901 325L902 326L901 325M121 327L122 328L121 327z"/>
<path style="fill:#818181; stroke:none;" d="M578 327L579 328L578 327z"/>
<path style="fill:#91361b; stroke:none;" d="M902 327L903 328L902 327M120 329L121 330L120 329M903 329L904 330L903 329z"/>
<path style="fill:#818181; stroke:none;" d="M582 330L583 331L582 330M583 331L584 332L583 331z"/>
<path style="fill:#91361b; stroke:none;" d="M584 333L587 333L586 331L584 333M587 333L604 357L605 357C602.329 347.748 595.32 337.911 587 333z"/>
<path style="fill:#818181; stroke:none;" d="M687 334L688 335L687 334z"/>
<path style="fill:#91361b; stroke:none;" d="M117 336L118 337L117 336M906 336L907 337L906 336z"/>
<path style="fill:#818181; stroke:none;" d="M590 337L591 338L590 337z"/>
<path style="fill:#91361b; stroke:none;" d="M116 338L117 339L116 338z"/>
<path style="fill:#818181; stroke:none;" d="M688 338L689 339L688 338z"/>
<path style="fill:#91361b; stroke:none;" d="M907 338L908 339L907 338z"/>
<path style="fill:#818181; stroke:none;" d="M592 339L593 340L592 339z"/>
<path style="fill:#141212; stroke:none;" d="M688 339L689 340L688 339z"/>
<path style="fill:#91361b; stroke:none;" d="M115 340L116 341L115 340M908 340L909 341L908 340z"/>
<path style="fill:#ffffff; stroke:none;" d="M28 341L29 342L28 341M995 341L996 342L995 341z"/>
<path style="fill:#818181; stroke:none;" d="M689 342L690 343L689 342M595 343L596 344L595 343z"/>
<path style="fill:#91361b; stroke:none;" d="M27 344L28 345L27 344z"/>
<path style="fill:#818181; stroke:none;" d="M596 344L597 345L596 344z"/>
<path style="fill:#91361b; stroke:none;" d="M996 344L997 345L996 344M113 345L114 346L113 345M910 345L911 346L910 345z"/>
<path style="fill:#818181; stroke:none;" d="M690 346L691 347L690 346M598 347L599 348L598 347z"/>
<path style="fill:#91361b; stroke:none;" d="M111 350L112 351L111 350z"/>
<path style="fill:#818181; stroke:none;" d="M600 350L601 351L600 350z"/>
<path style="fill:#91361b; stroke:none;" d="M912 350L913 351L912 350z"/>
<path style="fill:#818181; stroke:none;" d="M691.333 352.667L691.667 353.333L691.333 352.667z"/>
<path style="fill:#91361b; stroke:none;" d="M109 355L110 356L109 355z"/>
<path style="fill:#141212; stroke:none;" d="M691 355L692 356L691 355z"/>
<path style="fill:#91361b; stroke:none;" d="M914 355L915 356L914 355M23 356L24 357L23 356M1000 356L1001 357L1000 356M605 357L607.1 389L590 420C606.365 408.228 618.384 374.892 605 357z"/>
<path style="fill:#ffffff; stroke:none;" d="M22 359L23 360L22 359M1001 359L1002 360L1001 359z"/>
<path style="fill:#91361b; stroke:none;" d="M107 360L108 361L107 360z"/>
<path style="fill:#818181; stroke:none;" d="M692 360L693 361L692 360z"/>
<path style="fill:#91361b; stroke:none;" d="M916 360L917 361L916 360M106 363L107 364L106 363z"/>
<path style="fill:#818181; stroke:none;" d="M606 363L607 364L606 363z"/>
<path style="fill:#91361b; stroke:none;" d="M917 363L918 364L917 363z"/>
<path style="fill:#141212; stroke:none;" d="M607 366L608 367L607 366z"/>
<path style="fill:#818181; stroke:none;" d="M607 367L608 368L607 367z"/>
<path style="fill:#91361b; stroke:none;" d="M104 368L105 369L104 368M919 368L920 369L919 368M103 371L104 372L103 371M920 371L921 372L920 371z"/>
<path style="fill:#818181; stroke:none;" d="M608 373L608 381L609 381L608 373M693 373L693 381L694 381L693 373z"/>
<path style="fill:#91361b; stroke:none;" d="M102 374L103 375L102 374M921 374L922 375L921 374M101 377L102 378L101 377M922 377L923 378L922 377z"/>
<path style="fill:#ffffff; stroke:none;" d="M16 380L17 381L16 380z"/>
<path style="fill:#91361b; stroke:none;" d="M100 380L101 381L100 380M923 380L924 381L923 380z"/>
<path style="fill:#ffffff; stroke:none;" d="M1007 380L1008 381L1007 380z"/>
<path style="fill:#91361b; stroke:none;" d="M99 383L100 384L99 383M924 383L925 384L924 383M98 387L99 388L98 387z"/>
<path style="fill:#818181; stroke:none;" d="M607 387L608 388L607 387z"/>
<path style="fill:#91361b; stroke:none;" d="M925 387L926 388L925 387M14 388L15 389L14 388M1009 388L1010 389L1009 388M97 390L98 391L97 390M926 390L927 391L926 390z"/>
<path style="fill:#818181; stroke:none;" d="M606 391L607 392L606 391z"/>
<path style="fill:#141212; stroke:none;" d="M692 391L693 392L692 391z"/>
<path style="fill:#818181; stroke:none;" d="M13 392L14 393L13 392M1010 392L1011 393L1010 392z"/>
<path style="fill:#91361b; stroke:none;" d="M96 393L97 394L96 393M927 393L928 394L927 393z"/>
<path style="fill:#818181; stroke:none;" d="M605 394L606 395L605 394M692.333 394.667L692.667 395.333L692.333 394.667z"/>
<path style="fill:#91361b; stroke:none;" d="M95 397L96 398L95 397M928 397L929 398L928 397z"/>
<path style="fill:#818181; stroke:none;" d="M603 399L604 400L603 399z"/>
<path style="fill:#91361b; stroke:none;" d="M94 401L95 402L94 401z"/>
<path style="fill:#818181; stroke:none;" d="M602 401L603 402L602 401z"/>
<path style="fill:#91361b; stroke:none;" d="M929 401L930 402L929 401z"/>
<path style="fill:#818181; stroke:none;" d="M691 402L692 403L691 402z"/>
<path style="fill:#91361b; stroke:none;" d="M93.3333 404.667L93.6667 405.333L93.3333 404.667M930.333 404.667L930.667 405.333L930.333 404.667z"/>
<path style="fill:#818181; stroke:none;" d="M690 408L691 409L690 408z"/>
<path style="fill:#91361b; stroke:none;" d="M92 409L93 410L92 409z"/>
<path style="fill:#818181; stroke:none;" d="M597 409L598 410L597 409z"/>
<path style="fill:#91361b; stroke:none;" d="M931 409L932 410L931 409M91 413L92 414L91 413M932 413L933 414L932 413z"/>
<path style="fill:#818181; stroke:none;" d="M593 414L594 415L593 414M592 415L593 416L592 415z"/>
<path style="fill:#91361b; stroke:none;" d="M90 417L91 418L90 417z"/>
<path style="fill:#818181; stroke:none;" d="M688 417L689 418L688 417z"/>
<path style="fill:#91361b; stroke:none;" d="M933 417L934 418L933 417M588 419C579.558 430.414 564.25 435.881 552 442L552 443C562.305 441.226 572.792 434.605 581 428.346C584.018 426.044 589.523 423.116 588 419z"/>
<path style="fill:#141212; stroke:none;" d="M687 419L688 420L687 419z"/>
<path style="fill:#818181; stroke:none;" d="M587 420L588 421L587 420M586 421L587 422L586 421z"/>
<path style="fill:#91361b; stroke:none;" d="M89 422L90 423L89 422z"/>
<path style="fill:#818181; stroke:none;" d="M585 422L586 423L585 422z"/>
<path style="fill:#91361b; stroke:none;" d="M934 422L935 423L934 422z"/>
<path style="fill:#818181; stroke:none;" d="M584 423L585 424L584 423M686 424L687 425L686 424z"/>
<path style="fill:#91361b; stroke:none;" d="M88.3333 426.667L88.6667 427.333L88.3333 426.667z"/>
<path style="fill:#818181; stroke:none;" d="M580 426L581 427L580 426z"/>
<path style="fill:#141212; stroke:none;" d="M685 426L686 427L685 426z"/>
<path style="fill:#91361b; stroke:none;" d="M935.333 426.667L935.667 427.333L935.333 426.667z"/>
<path style="fill:#818181; stroke:none;" d="M685 427L686 428L685 427M684 430L685 431L684 430z"/>
<path style="fill:#91361b; stroke:none;" d="M87 432L88 433L87 432z"/>
<path style="fill:#818181; stroke:none;" d="M571 432L572 433L571 432z"/>
<path style="fill:#91361b; stroke:none;" d="M936 432L937 433L936 432z"/>
<path style="fill:#818181; stroke:none;" d="M568 434L569 435L568 434M682 435L683 436L682 435z"/>
<path style="fill:#91361b; stroke:none;" d="M86.3333 437.667L86.6667 438.333L86.3333 437.667z"/>
<path style="fill:#818181; stroke:none;" d="M562 437L563 438L562 437z"/>
<path style="fill:#91361b; stroke:none;" d="M937.333 437.667L937.667 438.333L937.333 437.667z"/>
<path style="fill:#818181; stroke:none;" d="M560 438L561 439L560 438M681 438L682 439L681 438z"/>
<path style="fill:#141212; stroke:none;" d="M558 439L559 440L558 439z"/>
<path style="fill:#818181; stroke:none;" d="M555 440L556 441L555 440M680 440L681 441L680 440M550 442L551 443L550 442z"/>
<path style="fill:#91361b; stroke:none;" d="M85.3333 443.667L85.6667 444.333L85.3333 443.667M541 446L541 447L552 444L541 446M938.333 443.667L938.667 444.333L938.333 443.667z"/>
<path style="fill:#818181; stroke:none;" d="M541 445L542 446L541 445M538 446L539 447L538 446z"/>
<path style="fill:#91361b; stroke:none;" d="M538 448L541 448L540 446L538 448z"/>
<path style="fill:#141212; stroke:none;" d="M677 446L678 447L677 446z"/>
<path style="fill:#91361b; stroke:none;" d="M534 448L534 449L538 449L534 448M522 463L523 463C523.166 455.261 525.92 450.733 534 450C523.609 444.002 522 455.842 522 463M84.3333 450.667L84.6667 451.333L84.3333 450.667M939.333 450.667L939.667 451.333L939.333 450.667M679 453L679 455L689 455L679 453M689 455L689 456L696 456L689 455M696 456L696 457L701 457L696 456M2 456L3 457L2 456M701 457L701 458L706 458L701 457M1021 456L1022 457L1021 456M83.3333 457.667L83.6667 458.333L83.3333 457.667M706 458L706 459L713 460L706 458M940.333 457.667L940.667 458.333L940.333 457.667M713 460C725.061 467.625 739.822 470.137 752 478.206C773.553 492.486 791.424 511.166 805.305 533C809.327 539.327 811.09 546.787 815 553C816.15 541.61 806.206 529.62 799.846 521C783.631 499.025 764.459 481.37 740 469.003C732.743 465.334 721.158 459.34 713 460z"/>
<path style="fill:#141212; stroke:none;" d="M720 461L721 462L720 461z"/>
<path style="fill:#91361b; stroke:none;" d="M522 464L522 516L522.637 542L549.753 595L614.691 720L645.752 780L659.634 804.972L685.424 805.861L760 804L726.309 741L657.139 614L616 538L615 538C616.241 544.964 620.537 550.807 623.742 557C631.413 571.825 639.75 586.318 647.691 601C672.957 647.711 698.986 694.038 723.781 741C734.068 760.485 749.888 780.784 756 802C734.1 806.066 709.279 804 687 804C679.683 804 668.516 807.229 662.043 803.142C655.941 799.289 653.492 790.05 650.139 784C641.217 767.904 633.445 751.186 624.691 735C601.3 691.749 579.295 647.697 556.742 604C546.257 583.687 530.479 562.009 524.171 540C519.388 523.317 523 501.306 523 484C523 477.846 524.395 469.707 522 464M82 465L82 468L83 468L82 465M941 465L941 468L942 468L941 465M81 476L81 480L82 480L81 476M942 476L942 480L943 480L942 476M0 480L1 481L0 480M1023 480L1024 481L1023 480M80 491L80 499L81 499L80 491M943 491L943 499L944 499L943 491M80 525L80 533L81 533L80 525M943 525L943 533L944 533L943 525M617 536L617 537L666 538C653.726 531.475 630.716 536 617 536z"/>
<path style="fill:#818181; stroke:none;" d="M259 537L259 538L341 538L316 537L259 537z"/>
<path style="fill:#91361b; stroke:none;" d="M669.667 538.333L670.333 538.667L669.667 538.333M673.667 539.333L674.333 539.667L673.667 539.333M678 540L679 541L678 540M681 541L682 542L681 541M684 542L685 543L684 542z"/>
<path style="fill:#818181; stroke:none;" d="M0 543L1 544L0 543z"/>
<path style="fill:#91361b; stroke:none;" d="M686 543L686 544L689 544L686 543z"/>
<path style="fill:#818181; stroke:none;" d="M1023 543L1024 544L1023 543z"/>
<path style="fill:#91361b; stroke:none;" d="M81 544L81 548L82 548L81 544M689 544L689 546L691 544L689 544M942 544L942 548L943 548L942 544M691 545L692 547L693 547L694 545L691 545M693 547L698 548L693 547M698 548L702 550L702 549L698 548M703 550L705 552L703 550M703 552L704 553L703 552M706 552L707 553L706 552M705 553L706 554L705 553M708 553L710 555L708 553M815 553L816 558L817 558L815 553M708 555L709 556L708 555M710 555L710 557L712 555L710 555M82 556L82 559L83 559L82 556M712 556L713 557L712 556M941 556L941 559L942 559L941 556M714 557L717 560L714 557M817 558L817 561L819 558L817 558M714 559L715 560L714 559M718 560L724 566L718 560M717 561L718 562L717 561M818 561L818 564L820 563L820 562L818 561M83.3333 565.667L83.6667 566.333L83.3333 565.667M721 565L722 566L721 565M819 565L819 567L821 567L819 565M940.333 565.667L940.667 566.333L940.333 565.667M724.333 566.667L724.667 567.333L724.333 566.667M2 567L3 568L2 567M821 567L820 572L821 572L821 567M1021 567L1022 568L1021 567M726 568L729 571L726 568M727 571L728 572L727 571M729 571L729 573L731 573L729 571M84.3333 572.667L84.6667 573.333L84.3333 572.667M821 572L821 575L823 574L823 573L821 572M939.333 572.667L939.667 573.333L939.333 572.667M731 573L736 579L731 573M822 575L822 579L823 579L822 575M732 577L733 578L732 577M85.3333 579.667L85.6667 580.333L85.3333 579.667M734 579L735 580L734 579M823 579L824 588L825 588L823 579M938.333 579.667L938.667 580.333L938.333 579.667M735 580L737 582L737 580L735 580M737 582L738 583L737 582z"/>
<path style="fill:#141212; stroke:none;" d="M824 582L825 583L824 582z"/>
<path style="fill:#91361b; stroke:none;" d="M736 583L737 584L736 583M738 583L737 585L739 585L738 583M86.3333 585.667L86.6667 586.333L86.3333 585.667M739 585L740 590L741 590L739 585M937.333 585.667L937.667 586.333L937.333 585.667M825 589L826 603L827 603L825 589M741 590L740 592L742 592L741 590M87 591L88 592L87 591z"/>
<path style="fill:#141212; stroke:none;" d="M826.333 591.667L826.667 592.333L826.333 591.667z"/>
<path style="fill:#91361b; stroke:none;" d="M936 591L937 592L936 591M742 592L742 595L743 595L742 592M743 595L744 598L743 595M88.3333 596.667L88.6667 597.333L88.3333 596.667M935.333 596.667L935.667 597.333L935.333 596.667M744 598L745 622L746 622L744 598M89 601L90 602L89 601M934 601L935 602L934 601z"/>
<path style="fill:#141212; stroke:none;" d="M744 604L745 605L744 604z"/>
<path style="fill:#91361b; stroke:none;" d="M90 606L91 607L90 606M827 606L827 620L828 620L827 606M933 606L934 607L933 606M91 610L92 611L91 610M932 610L933 611L932 610M92 614L93 615L92 614M931 614L932 615L931 614M93.3333 618.667L93.6667 619.333L93.3333 618.667M930.333 618.667L930.667 619.333L930.333 618.667M94 622L95 623L94 622M744 622L744 628L745 628L744 622M929 622L930 623L929 622M825 623L823 645L824 645L827 623L825 623z"/>
<path style="fill:#141212; stroke:none;" d="M826 625L826 628L827 628L826 625z"/>
<path style="fill:#91361b; stroke:none;" d="M95 626L96 627L95 626M928 626L929 627L928 626M743 628L743 631L744 631L743 628M96 630L97 631L96 630M927 630L928 631L927 630z"/>
<path style="fill:#818181; stroke:none;" d="M13 631L14 632L13 631M1010 631L1011 632L1010 631z"/>
<path style="fill:#91361b; stroke:none;" d="M742.333 632.667L742.667 633.333L742.333 632.667M97 633L98 634L97 633M926 633L927 634L926 633M740 634L742 636L742 634L740 634M14 635L15 636L14 635M1009 635L1010 636L1009 635M98 636L99 637L98 636M740.333 636.667L740.667 637.333L740.333 636.667M925 636L926 637L925 636M738 638L740 640L740 638L738 638M99 640L100 641L99 640M738 640L737 643L738 640M924 640L925 641L924 640z"/>
<path style="fill:#141212; stroke:none;" d="M824 641L825 642L824 641z"/>
<path style="fill:#ffffff; stroke:none;" d="M16 643L17 644L16 643z"/>
<path style="fill:#91361b; stroke:none;" d="M100 643L101 644L100 643M735 643L736 644L735 643M923 643L924 644L923 643z"/>
<path style="fill:#ffffff; stroke:none;" d="M1007 643L1008 644L1007 643z"/>
<path style="fill:#91361b; stroke:none;" d="M736 644L735 646L736 644M822 645L824 648L822 645M101 646L102 647L101 646M922 646L923 647L922 646M734 647L733 649L734 647M102 649L103 650L102 649M821 649L821 652L822 652L821 649M921 649L922 650L921 649M730 650L731 651L730 650M732 650L730 653L732 650M103 652L104 653L103 652M822 652L823 653L822 652M920 652L921 653L920 652M728 653L728 655L730 653L728 653M820 653L821 657L822 657L820 653M726 654L727 655L726 654M104 655L105 656L104 655M727 655L726 657L727 655M919 655L920 656L919 655M724 657L724 659L726 657L724 657M819 657L821 660L819 657M722 658L723 659L722 658M723 659L724 660L723 659M106 660L107 661L106 660z"/>
<path style="fill:#141212; stroke:none;" d="M720 660L721 661L720 660z"/>
<path style="fill:#91361b; stroke:none;" d="M719 663L723 661L719 663M818 660L817 665L820 660L818 660M917 660L918 661L917 660M717 662L718 663L717 662M107 663L108 664L107 663M718 663L719 664L718 663M916 663L917 664L916 663z"/>
<path style="fill:#ffffff; stroke:none;" d="M22 664L23 665L22 664z"/>
<path style="fill:#91361b; stroke:none;" d="M714 667L718 665L714 667z"/>
<path style="fill:#ffffff; stroke:none;" d="M1001 664L1002 665L1001 664z"/>
<path style="fill:#91361b; stroke:none;" d="M712 666L711 669L714 667L712 666M816 666L818 669L816 666M23 667L24 668L23 667M1000 667L1001 668L1000 667M109 668L110 669L109 668M914 668L915 669L914 668M705 671L705 672L707 675L708 675L711 669L705 671M815 669L814 675L815 675L815 669z"/>
<path style="fill:#141212; stroke:none;" d="M707 670L708 671L707 670M706 671L706 674L707 674L706 671z"/>
<path style="fill:#91361b; stroke:none;" d="M111 673L112 674L111 673M912 673L913 674L912 673M708 675L709 679L710 679L708 675M813.333 675.667L813.667 676.333L813.333 675.667M812.333 677.667L812.667 678.333L812.333 677.667M113 678L114 679L113 678M910 678L911 679L910 678M27 679L28 680L27 679M710 679L711 680L710 679M811 679L811 681L813 681L811 679M996 679L997 680L996 679M711 681L712 682L711 681M810 681L810 683L812 683L810 681z"/>
<path style="fill:#ffffff; stroke:none;" d="M28 682L29 683L28 682z"/>
<path style="fill:#91361b; stroke:none;" d="M712 682L711 684L713 684L712 682z"/>
<path style="fill:#ffffff; stroke:none;" d="M995 682L996 683L995 682z"/>
<path style="fill:#91361b; stroke:none;" d="M115 683L116 684L115 683M809.333 683.667L809.667 684.333L809.333 683.667M908 683L909 684L908 683M713 684L712 686L714 686L713 684M116 685L117 686L116 685M808 685L808 687L810 687L808 685M907 685L908 686L907 685M714 686L714 688L716 688L714 686M117 687L118 688L117 687M192 774L337 774L629 774L620.258 755L599.753 715L591 697L589 697C589.102 682.429 567.712 687 558 687L456 687L258 687L210 687C206.062 687 195.746 685.171 193.028 688.603C189.307 693.302 192.991 705.418 193 711C193.034 732.016 192.002 753.061 192 774M807 687L807 689L809 689L807 687M906 687L907 688L906 687z"/>
<path style="fill:#141212; stroke:none;" d="M198.109 688.573C191.743 690.626 194 701.823 194 707L194 756C194 761.022 192.348 769.78 198.109 772.258C204.905 775.181 216.624 772 224 772L291 772L524 772C548.666 772 573.335 771.882 598 772.001C604.314 772.031 618.056 776.14 623.393 771.821C628.175 767.95 618.311 754.812 616.298 751C608.092 735.465 600.102 719.709 592.247 704C589.263 698.032 586.76 688.967 578.999 688.228C552.918 685.747 524.364 689 498 689L316 689L233 689C222.976 689 207.458 685.557 198.109 688.573M585 688L586 689L585 688z"/>
<path style="fill:#91361b; stroke:none;" d="M118 689L119 690L118 689M716 689L717 690L716 689M806 689L807 690L806 689M905 689L906 690L905 689M715 690L716 691L715 690M805 690L805 692L807 692L805 690M717 691L719 695L720 695L717 691M804 692L803 695C805.158 694.022 805.501 693.812 804 692M120 694L121 695L120 694M903 694L904 695L903 694M718 695L719 696L718 695M802 695L801 698C803.158 697.022 803.501 696.812 802 695M121 696L122 697L121 696z"/>
<path style="fill:#141212; stroke:none;" d="M589 696L590 697L589 696z"/>
<path style="fill:#91361b; stroke:none;" d="M719.667 696.333L720.333 696.667L719.667 696.333M902 696L903 697L902 696M721 697L722 698L721 697M122 698L123 699L122 698z"/>
<path style="fill:#141212; stroke:none;" d="M590 698L591 699L590 698z"/>
<path style="fill:#91361b; stroke:none;" d="M720 698L721 699L720 698M800 698L799 701L800 698M901 698L902 699L901 698M722 699L724 702L722 699M123 700L124 701L123 700M900 700L901 701L900 700M798 701L798 703L800 703L798 701M124 702L125 703L124 702M899 702L900 703L899 702M724 703L723 704L723 705L724 706L725 706L726 705L726 704L724 703M797 703L798 704L797 703M125 704L126 705L125 704M796 704L795 707L796 704M798 704L799 705L798 704M898 704L899 705L898 704M126 706L127 707L126 706M725 706L728 709L725 706M897 706L898 707L897 706M794 707L795 708L794 707M38 708L39 709L38 708M127 708L128 709L127 708M793 708L792 711L793 708M896 708L897 709L896 708M985 708L986 709L985 708M728 709L730 712L728 709M128 710L129 711L128 710M895 710L896 711L895 710M791 711L792 714L791 711M129 712L130 713L129 712M730 712L729 714L731 714L730 712M894 712L895 713L894 712M789 713L789 715L791 715L789 713M130 714L131 715L130 714M731 714L749 749L753 748L753 746L731 714M893 714L894 715L893 714M787 717L790 717L789 715L787 717M131 716L132 717L131 716M892 716L893 717L892 716M786 717L787 718L786 717M785 718L784 719L784 720L785 721L786 721L787 720L787 719L785 718M783 720L781 723L783 720M134 721L135 722L134 721M784 721L785 722L784 721M889 721L890 722L889 721z"/>
<path style="fill:#ffffff; stroke:none;" d="M44 722L45 723L44 722M979 722L980 723L979 722z"/>
<path style="fill:#91361b; stroke:none;" d="M135 723L136 724L135 723M780 723L781 724L780 723M782 723L783 724L782 723M888 723L889 724L888 723M779 724L780 725L779 724M778 725L775 729L778 725M778 727L779 728L778 727M138 728L139 729L138 728M885 728L886 729L885 728M774 729L773 733L774 729M776 729L777 730L776 729M139 730L140 731L139 730M884 730L885 731L884 730M770 732L767 736L772 733L770 732M142 735L143 736L142 735M881 735L882 736L881 735M765 736L764 737L764 738L765 739L766 739L767 738L767 737L765 736M763 738L762 740L764 740L763 738M145 740L146 741L145 740M759 742L762 742L761 740L759 742M878 740L879 741L878 740z"/>
<path style="fill:#141212; stroke:none;" d="M613 742L614 743L613 742z"/>
<path style="fill:#91361b; stroke:none;" d="M757 742L756 743L756 744L757 745L758 745L759 744L759 743L757 742M147 743L148 744L147 743M876 743L877 744L876 743M755 744L756 745L755 744z"/>
<path style="fill:#818181; stroke:none;" d="M615 745L616 746L615 745z"/>
<path style="fill:#91361b; stroke:none;" d="M753 745L755 747L755 745L753 745M149 746L150 747L149 746M874 746L875 747L874 746z"/>
<path style="fill:#141212; stroke:none;" d="M751.667 748.333L752.333 748.667L751.667 748.333z"/>
<path style="fill:#91361b; stroke:none;" d="M151 749L152 750L151 749z"/>
<path style="fill:#818181; stroke:none;" d="M617 749L618 750L617 749z"/>
<path style="fill:#91361b; stroke:none;" d="M872 749L873 750L872 749M155 755L156 756L155 755M868 755L869 756L868 755z"/>
<path style="fill:#818181; stroke:none;" d="M621 757L622 758L621 757M62 758L63 759L62 758z"/>
<path style="fill:#91361b; stroke:none;" d="M157 758L158 759L157 758M866 758L867 759L866 758z"/>
<path style="fill:#818181; stroke:none;" d="M961 758L962 759L961 758M622 759L623 760L622 759z"/>
<path style="fill:#91361b; stroke:none;" d="M159 761L160 762L159 761M864 761L865 762L864 761M160 762L161 763L160 762M863 762L864 763L863 762M162 765L163 766L162 765M861 765L862 766L861 765z"/>
<path style="fill:#ffffff; stroke:none;" d="M67 767L68 768L67 767M956 767L957 768L956 767z"/>
<path style="fill:#91361b; stroke:none;" d="M164 768L165 769L164 768M859 768L860 769L859 768M70 772L71 773L70 772M167 772L168 773L167 772M856 772L857 773L856 772M953 772L954 773L953 772M168 773L169 774L168 773M855 773L856 774L855 773M171 777L172 778L171 777M852 777L853 778L852 777M172 778L173 779L172 778M851 778L852 779L851 778M175 782L176 783L175 782M848 782L849 783L848 782M178 786L179 787L178 786M845 786L846 787L845 786M179 787L180 788L179 787M844 787L845 788L844 787M180 788L181 789L180 788M843 788L844 789L843 788z"/>
<path style="fill:#ef1d17; stroke:none;" d="M80 789L80 944L235 944L235 943C198.194 918.17 162.772 890.446 133.285 857C121.314 843.421 109.622 829.586 98.8843 815C92.7366 806.649 87.637 795.999 80 789M943 789C901.394 850.673 850.673 901.394 789 943L789 944L944 944L944 835C944 822.009 948.007 800.932 943 789z"/>
<path style="fill:#91361b; stroke:none;" d="M185 794L186 795L185 794M838 794L839 795L838 794M186 795L187 796L186 795M837 795L838 796L837 795M191 801L192 802L191 801M832 801L833 802L832 801M192 802L193 803L192 802M831 802L832 803L831 802M193 803L194 804L193 803M830 803L831 804L830 803M194 804L195 805L194 804M829 804L830 805L829 804M195 805L196 806L195 805z"/>
<path style="fill:#141212; stroke:none;" d="M684 805L685 806L684 805z"/>
<path style="fill:#91361b; stroke:none;" d="M828 805L829 806L828 805z"/>
<path style="fill:#ffffff; stroke:none;" d="M97 813L98 814L97 813M926 813L927 814L926 813z"/>
<path style="fill:#91361b; stroke:none;" d="M218 828L219 829L218 828M805 828L806 829L805 828M219 829L220 830L219 829M804 829L805 830L804 829z"/>
<path style="fill:#818181; stroke:none;" d="M110 830L111 831L110 830z"/>
<path style="fill:#91361b; stroke:none;" d="M220 830L221 831L220 830M803 830L804 831L803 830z"/>
<path style="fill:#818181; stroke:none;" d="M913 830L914 831L913 830z"/>
<path style="fill:#91361b; stroke:none;" d="M221 831L222 832L221 831M802 831L803 832L802 831M222 832L223 833L222 832M801 832L802 833L801 832M228 837L229 838L228 837M795 837L796 838L795 837M229 838L230 839L229 838M794 838L795 839L794 838M235 843L236 844L235 843M788 843L789 844L788 843M236 844L237 845L236 844M787 844L788 845L787 844M237 845L238 846L237 845M786 845L787 846L786 845M125 848L126 849L125 848M241 848L242 849L241 848M782 848L783 849L782 848M898 848L899 849L898 848M245 851L246 852L245 851M778 851L779 852L778 851M246 852L247 853L246 852M777 852L778 853L777 852M250 855L251 856L250 855M773 855L774 856L773 855M251 856L252 857L251 856M772 856L773 857L772 856M255 859L256 860L255 859M768 859L769 860L768 859M258 861L259 862L258 861M765 861L766 862L765 861M261 863L262 864L261 863M762 863L763 864L762 863M262 864L263 865L262 864M761 864L762 865L761 864M265 866L266 867L265 866M758 866L759 867L758 866M268 868L269 869L268 868M755 868L756 869L755 868M274 872L275 873L274 872M749 872L750 873L749 872M277 874L278 875L277 874M746 874L747 875L746 874M280 876L281 877L280 876M743 876L744 877L743 876M283 878L284 879L283 878M740 878L741 879L740 878M288 881L289 882L288 881M735 881L736 882L735 881M293 884L294 885L293 884M730 884L731 885L730 884M295 885L296 886L295 885M728 885L729 886L728 885M300 888L301 889L300 888M723 888L724 889L723 888M302 889L303 890L302 889M721 889L722 890L721 889M307 892L308 893L307 892M716 892L717 893L716 892M309 893L310 894L309 893M714 893L715 894L714 893M311 894L312 895L311 894M712 894L713 895L712 894M313 895L314 896L313 895M710 895L711 896L710 895M315 896L316 897L315 896M708 896L709 897L708 896M317 897L318 898L317 897M706 897L707 898L706 897M175 898L176 899L175 898M319 898L320 899L319 898M704 898L705 899L704 898M848 898L849 899L848 898M321 899L322 900L321 899M702 899L703 900L702 899M323 900L324 901L323 900M700 900L701 901L700 900M325 901L326 902L325 901M698 901L699 902L698 901M327 902L328 903L327 902M696 902L697 903L696 902M329 903L330 904L329 903M694 903L695 904L694 903M336 906L337 907L336 906M687 906L688 907L687 906M338 907L339 908L338 907M685 907L686 908L685 907M340 908L341 909L340 908M683 908L684 909L683 908M345 910L346 911L345 910M678 910L679 911L678 910M350 912L351 913L350 912M673 912L674 913L673 912z"/>
<path style="fill:#818181; stroke:none;" d="M193 913L194 914L193 913M830 913L831 914L830 913z"/>
<path style="fill:#91361b; stroke:none;" d="M355 914L356 915L355 914M668 914L669 915L668 914M360 916L361 917L360 916M663 916L664 917L663 916M363 917L364 918L363 917M660 917L661 918L660 917M368 919L369 920L368 919M655 919L656 920L655 919M371 920L372 921L371 920M652 920L653 921L652 920M374 921L375 922L374 921M649 921L650 922L649 921M377 922L378 923L377 922M646 922L647 923L646 922M380 923L381 924L380 923M643 923L644 924L643 923M383 924L384 925L383 924M640 924L641 925L640 924M387 925L388 926L387 925M636 925L637 926L636 925z"/>
<path style="fill:#ffffff; stroke:none;" d="M210 926L211 927L210 926z"/>
<path style="fill:#91361b; stroke:none;" d="M390 926L391 927L390 926M633 926L634 927L633 926z"/>
<path style="fill:#ffffff; stroke:none;" d="M813 926L814 927L813 926z"/>
<path style="fill:#91361b; stroke:none;" d="M393 927L394 928L393 927M630 927L631 928L630 927M397 928L398 929L397 928M626 928L627 929L626 928M401 929L402 930L401 929M622 929L623 930L622 929M404.667 930.333L405.333 930.667L404.667 930.333M618.667 930.333L619.333 930.667L618.667 930.333M409 931L410 932L409 931M614 931L615 932L614 931M413 932L414 933L413 932M610 932L611 933L610 932M417 933L418 934L417 933M606 933L607 934L606 933M422 934L423 935L422 934M601 934L602 935L601 934M426.667 935.333L427.333 935.667L426.667 935.333M596.667 935.333L597.333 935.667L596.667 935.333M432 936L433 937L432 936M591 936L592 937L591 936M437.667 937.333L438.333 937.667L437.667 937.333M585.667 937.333L586.333 937.667L585.667 937.333M443.667 938.333L444.333 938.667L443.667 938.333M579.667 938.333L580.333 938.667L579.667 938.333M450.667 939.333L451.333 939.667L450.667 939.333M572.667 939.333L573.333 939.667L572.667 939.333M457.667 940.333L458.333 940.667L457.667 940.333M565.667 940.333L566.333 940.667L565.667 940.333M465 941L465 942L468 942L465 941M556 941L556 942L559 942L556 941M476 942L476 943L480 943L476 942M544 942L544 943L548 943L544 942M491 943L491 944L499 944L491 943M525 943L525 944L533 944L525 943M251 953L252 954L251 953M772 953L773 954L772 953z"/>
<path style="fill:#ffffff; stroke:none;" d="M256 956L257 957L256 956M767 956L768 957L767 956z"/>
<path style="fill:#818181; stroke:none;" d="M265 961L266 962L265 961M758 961L759 962L758 961z"/>
<path style="fill:#ffffff; stroke:none;" d="M301 979L302 980L301 979M722 979L723 980L722 979z"/>
<path style="fill:#91361b; stroke:none;" d="M315 985L316 986L315 985M708 985L709 986L708 985z"/>
<path style="fill:#ffffff; stroke:none;" d="M341 995L342 996L341 995M682 995L683 996L682 995z"/>
<path style="fill:#91361b; stroke:none;" d="M344 996L345 997L344 996M679 996L680 997L679 996M356 1000L357 1001L356 1000M667 1000L668 1001L667 1000z"/>
<path style="fill:#ffffff; stroke:none;" d="M359 1001L360 1002L359 1001M664 1001L665 1002L664 1001M380 1007L381 1008L380 1007M643 1007L644 1008L643 1007z"/>
<path style="fill:#91361b; stroke:none;" d="M388 1009L389 1010L388 1009M635 1009L636 1010L635 1009z"/>
<path style="fill:#818181; stroke:none;" d="M392 1010L393 1011L392 1010M631 1010L632 1011L631 1010z"/>
<path style="fill:#91361b; stroke:none;" d="M456 1021L457 1022L456 1021M567 1021L568 1022L567 1021M480 1023L481 1024L480 1023M543 1023L544 1024L543 1023z"/>
</svg>
